<svg width="32" height="28" viewBox="0 0 32 28" fill="none" xmlns="http://www.w3.org/2000/svg">
<g clip-path="url(#clip0_6659_6824)">
<path d="M28.4983 7.02075H2.71669C2.10411 7.02075 1.60751 7.51791 1.60751 8.13119V26.8708C1.60751 27.4841 2.10411 27.9812 2.71669 27.9812H28.4983C29.1109 27.9812 29.6075 27.4841 29.6075 26.8708V8.13119C29.6075 7.51791 29.1109 7.02075 28.4983 7.02075Z" fill="#4989F5"/>
<path d="M28.1747 6.86328H3.00933C2.22979 6.86328 1.62317 12.9033 1.62317 13.6837L15.4045 27.9813H28.1747C28.9567 27.9791 29.5901 27.345 29.5922 26.5622V8.28205C29.5899 7.49932 28.9566 6.86542 28.1747 6.86328Z" fill="url(#paint0_linear_6659_6824)"/>
<path d="M8.00092 10.5309H16.0009V0.019043H9.19881L8.00092 10.5309Z" fill="#3C4BA6"/>
<path d="M24.0009 10.5309H16.0009V0.019043H22.803L24.0009 10.5309ZM29.6075 2.0117L29.6175 2.04753C29.6151 2.03488 29.6102 2.02314 29.6075 2.0117Z" fill="#7BABF7"/>
<path d="M29.6174 2.04728L29.6075 2.01145C29.3539 0.84871 28.3259 0.0195516 27.1371 0.0187988H22.803L24 10.531H32L29.6174 2.04728Z" fill="#3F51B5"/>
<path d="M2.39429 2.01172L2.38437 2.04755C2.38677 2.0349 2.39159 2.02316 2.39429 2.01172Z" fill="#7BABF7"/>
<path d="M2.38406 2.04728L2.39398 2.01145C2.64761 0.84871 3.67558 0.0195516 4.86436 0.0187988H9.1988L8 10.531H0L2.38406 2.04728Z" fill="#7BABF7"/>
<path fill-rule="evenodd" clip-rule="evenodd" d="M8.01444 10.5283C8.01444 12.7387 6.22458 14.5306 4.0167 14.5306C1.80882 14.5306 0.0189514 12.7387 0.0189514 10.5283H8.01444Z" fill="#709BE0"/>
<path fill-rule="evenodd" clip-rule="evenodd" d="M16.0099 10.5283C16.0099 12.7387 14.2201 14.5306 12.0122 14.5306C9.8043 14.5306 8.01443 12.7387 8.01443 10.5283H16.0099Z" fill="#3C4BA6"/>
<path fill-rule="evenodd" clip-rule="evenodd" d="M24.0054 10.5283C24.0054 12.7387 22.2155 14.5306 20.0077 14.5306C17.7998 14.5306 16.0099 12.7387 16.0099 10.5283H24.0054Z" fill="#709BE0"/>
<path fill-rule="evenodd" clip-rule="evenodd" d="M32 10.5283C32 12.7387 30.2101 14.5306 28.0023 14.5306C25.7944 14.5306 24.0045 12.7387 24.0045 10.5283H32Z" fill="#3C4BA6"/>
<path d="M28.0024 21.3717C27.9883 21.1811 27.9648 21.007 27.9314 20.7848H23.5705C23.5705 21.3955 23.5705 22.0618 23.5681 22.6727H26.0944C26.0408 22.9574 25.9314 23.2287 25.7727 23.471C25.614 23.7133 25.4091 23.9218 25.1696 24.0846C25.1696 24.0846 25.1696 24.074 25.1678 24.0737C24.8586 24.277 24.5103 24.4131 24.1453 24.4733C23.7793 24.5403 23.4041 24.5387 23.0388 24.4685C22.6678 24.3916 22.3166 24.2392 22.0069 24.0207C21.5498 23.6962 21.1973 23.2452 20.9925 22.723C20.9769 22.6823 20.9624 22.6414 20.9477 22.5998V22.5953L20.9516 22.5923C20.7528 22.0083 20.7523 21.3749 20.9501 20.7906C21.0894 20.3806 21.3187 20.0072 21.6211 19.6976C22.3304 18.9629 23.3904 18.6866 24.3675 18.9816C24.7422 19.0966 25.0846 19.2984 25.3669 19.5705L26.2193 18.7172C26.3696 18.5652 26.5257 18.4179 26.6704 18.2608C26.2382 17.8572 25.7309 17.5427 25.1775 17.3352C24.1702 16.9695 23.0683 16.9599 22.0547 17.3078C22.0195 17.3198 21.9844 17.3324 21.9495 17.3454C20.8561 17.757 19.9565 18.564 19.4286 19.6073C19.2421 19.9765 19.1064 20.3693 19.025 20.7749C18.5422 23.1768 20.0061 25.5411 22.3696 26.1766C23.1423 26.3837 23.9636 26.3786 24.7423 26.2016C25.4497 26.0416 26.1039 25.7013 26.6412 25.2137C27.2018 24.6973 27.6036 24.0093 27.8141 23.2785C27.9902 22.6593 28.0539 22.0134 28.0024 21.3717Z" fill="white"/>
</g>
<defs>
<linearGradient id="paint0_linear_6659_6824" x1="1.62317" y1="9812.69" x2="29760.4" y2="9812.69" gradientUnits="userSpaceOnUse">
<stop offset="0.03" stop-color="#4079D8"/>
<stop offset="1" stop-color="#4989F5"/>
</linearGradient>
<clipPath id="clip0_6659_6824">
<rect width="32" height="28" fill="white"/>
</clipPath>
</defs>
</svg>
