<svg width="28" height="28" viewBox="0 0 28 28" fill="none" xmlns="http://www.w3.org/2000/svg">
<g clip-path="url(#clip0_6659_6819)">
<path d="M14 28.0001C21.732 28.0001 28 21.7336 28 14.0035C28 6.27335 21.732 0.00683594 14 0.00683594C6.26801 0.00683594 0 6.27335 0 14.0035C0 21.7336 6.26801 28.0001 14 28.0001Z" fill="white"/>
<path d="M8.80264 26.9962C8.62792 25.4039 8.75 23.8822 9.1 22.4125L10.5 16.3766C10.2726 15.6421 10.0974 14.8017 10.0974 13.9619C10.0974 12.0024 11.0426 10.6027 12.53 10.6027C13.5626 10.6027 14.3153 11.3199 14.3153 12.7022C14.3153 13.1395 14.2279 13.6294 14.0526 14.1892L13.44 16.2014C13.3174 16.5866 13.2653 16.9539 13.2653 17.2685C13.2653 18.6682 14.3326 19.4553 15.6979 19.4553C18.1306 19.4553 19.8632 16.9359 19.8632 13.6641C19.8632 10.025 17.4832 7.69815 13.9658 7.69815C10.0458 7.69815 7.56112 10.2528 7.56112 13.804C7.56112 15.2384 7.99848 16.5681 8.8564 17.4779C8.5764 17.9504 8.27904 18.0378 7.82376 18.0378C6.42376 18.0378 5.09376 16.0609 5.09376 13.3662C5.09376 8.71207 8.82112 5.00352 14.0538 5.00352C19.5485 5.00352 22.9964 8.83524 22.9964 13.5588C22.9964 18.2824 19.6364 21.8868 16.0138 21.8868C14.5785 21.8868 13.3185 21.2743 12.4438 20.172L11.7264 23.0765C11.3411 24.5809 10.7638 25.9985 9.8364 27.3629C11.149 27.7654 12.4438 27.9927 14.0017 27.9927C21.7364 27.9927 28.0017 21.7289 28.0017 13.9961C28.0017 6.26322 21.7353 0 14 0C6.26472 0 0 6.26378 0 13.9966C0 19.8579 3.60528 24.914 8.80264 26.9962Z" fill="#E60023"/>
</g>
<defs>
<clipPath id="clip0_6659_6819">
<rect width="28" height="28" fill="white"/>
</clipPath>
</defs>
</svg>
