<svg width="168" height="55" viewBox="0 0 168 55" fill="none" xmlns="http://www.w3.org/2000/svg">
<g clip-path="url(#clip0_6734_10929)">
<path d="M47.3552 21.4839C46.8271 21.4839 46.4583 21.3678 46.2426 21.1417C46.027 20.9125 45.9176 20.5514 45.9176 20.0584V2.04101C45.9176 1.40358 45.7676 0.904323 45.4675 0.543222C45.1675 0.182121 44.7112 0 44.1017 0C43.4923 0 43.011 0.178981 42.6985 0.543222C42.3859 0.904323 42.2328 1.40358 42.2328 2.04101V20.2028C42.2328 21.6472 42.5953 22.7776 43.3204 23.5972C44.0455 24.4167 45.2206 24.8249 46.8521 24.8249C47.4865 24.8249 47.9772 24.6585 48.3272 24.3288C48.6741 23.9991 48.8492 23.5438 48.8492 22.966C48.8492 22.4479 48.7116 22.0711 48.4366 21.8356C48.1616 21.6001 47.8022 21.4839 47.3584 21.4839H47.3552Z" fill="#14385F"/>
<path d="M144.235 21.4839C143.707 21.4839 143.338 21.3678 143.122 21.1417C142.907 20.9125 142.797 20.5514 142.797 20.0584V2.04101C142.797 1.40358 142.647 0.904323 142.347 0.543222C142.047 0.182121 141.591 0 140.981 0C140.372 0 139.891 0.178981 139.578 0.543222C139.266 0.904323 139.112 1.40358 139.112 2.04101V20.2028C139.112 21.6472 139.475 22.7776 140.2 23.5972C140.925 24.4167 142.1 24.8249 143.732 24.8249C144.366 24.8249 144.857 24.6585 145.207 24.3288C145.554 23.9991 145.729 23.5438 145.729 22.966C145.729 22.4479 145.591 22.0711 145.316 21.8356C145.041 21.6001 144.682 21.4839 144.238 21.4839H144.235Z" fill="#14385F"/>
<path d="M63.8196 8.18603C62.5382 7.44498 61.0631 7.07446 59.3973 7.07446C57.7314 7.07446 56.3157 7.44498 55.0374 8.18603C53.7623 8.92707 52.7684 9.97269 52.0558 11.3198C51.3432 12.6668 50.9869 14.2274 50.9869 15.9984C50.9869 17.7693 51.3432 19.3048 52.0558 20.6487C52.7684 21.9927 53.7623 23.032 55.0374 23.773C56.3125 24.5141 57.7658 24.8846 59.3973 24.8846C61.0287 24.8846 62.5351 24.5141 63.8196 23.773C65.101 23.032 66.0949 21.9895 66.8043 20.6393C67.5107 19.2922 67.8638 17.7442 67.8638 15.9984C67.8638 14.2525 67.5107 12.67 66.8043 11.3198C66.098 9.97269 65.1041 8.92707 63.8196 8.18603ZM63.5946 18.9563C63.2289 19.7884 62.6914 20.4258 61.985 20.8717C61.2787 21.3175 60.413 21.5405 59.3973 21.5405C58.3815 21.5405 57.5721 21.3175 56.872 20.8717C56.1719 20.4258 55.6343 19.7884 55.2624 18.9563C54.8905 18.1242 54.7061 17.1382 54.7061 15.9952C54.7061 14.8523 54.8936 13.8443 55.2624 13.0059C55.6343 12.1707 56.1719 11.527 56.872 11.0811C57.5721 10.6352 58.4159 10.4123 59.3973 10.4123C60.3786 10.4123 61.2787 10.6352 61.985 11.0811C62.6914 11.527 63.2289 12.1676 63.5946 13.0059C63.9603 13.8443 64.1415 14.8397 64.1415 15.9952C64.1415 17.1508 63.9571 18.1242 63.5946 18.9563Z" fill="#14385F"/>
<path d="M86.1784 7.41677C85.8908 7.23779 85.5595 7.14673 85.1908 7.14673C84.822 7.14673 84.5001 7.25977 84.1938 7.47957C83.8875 7.70251 83.6343 8.02907 83.4312 8.46239L78.44 19.4964L73.4207 8.46239C73.2425 8.04163 72.9988 7.71507 72.6925 7.48899C72.3862 7.25977 72.0549 7.14673 71.6955 7.14673C71.3361 7.14673 70.9954 7.23779 70.7079 7.41677C70.4204 7.59575 70.2016 7.82183 70.0516 8.09501C69.9015 8.36505 69.8265 8.63509 69.8265 8.89885C69.8265 9.22541 69.939 9.6399 70.1672 10.1454L76.3148 23.4528C76.5304 23.8861 76.8211 24.219 77.1867 24.445C77.5524 24.6743 77.9681 24.7873 78.4369 24.7873C78.9057 24.7873 79.3182 24.6774 79.6776 24.4545C80.0371 24.2315 80.3308 23.8987 80.559 23.4528L86.7253 10.1454C86.9409 9.6399 87.0472 9.22541 87.0472 8.89885C87.0472 8.63509 86.9753 8.36505 86.8316 8.09501C86.6878 7.82497 86.4722 7.59889 86.1846 7.41677H86.1784Z" fill="#14385F"/>
<path d="M93.0666 0.712762C92.7853 0.555761 92.4666 0.474121 92.1134 0.474121C91.7602 0.474121 91.4414 0.552621 91.157 0.712762C90.8758 0.872902 90.6601 1.09584 90.507 1.38158C90.3538 1.67047 90.2788 1.99703 90.2788 2.36441C90.2788 2.73179 90.3569 3.03951 90.507 3.32211C90.6601 3.60471 90.8758 3.82451 91.157 3.98465C91.4383 4.14479 91.7571 4.22329 92.1134 4.22329C92.4697 4.22329 92.7728 4.14479 93.0604 3.98465C93.3479 3.82765 93.5698 3.60471 93.7261 3.32211C93.8823 3.03951 93.9636 2.71923 93.9636 2.36441C93.9636 2.00959 93.8855 1.67047 93.7261 1.38158C93.5698 1.09584 93.3479 0.872902 93.0666 0.712762Z" fill="#14385F"/>
<path d="M92.1102 7.14669C91.4883 7.14669 91.0257 7.32568 90.7257 7.68992C90.4257 8.05102 90.2756 8.56284 90.2756 9.22538V22.7149C90.2756 23.3774 90.4257 23.8892 90.7257 24.2503C91.0257 24.6114 91.4851 24.7935 92.1102 24.7935C92.7353 24.7935 93.1978 24.6146 93.5041 24.2503C93.8104 23.8892 93.9635 23.3774 93.9635 22.7149V9.22224C93.9635 8.5597 93.8104 8.04788 93.5041 7.68678C93.1978 7.32568 92.7353 7.14355 92.1102 7.14355V7.14669Z" fill="#14385F"/>
<path d="M111.397 8.15777C110.344 7.43556 109.025 7.07446 107.443 7.07446H107.259C105.512 7.07446 104.052 7.43556 102.886 8.15777C102.677 8.28651 102.483 8.42781 102.296 8.57539C102.121 7.6271 101.539 7.14668 100.542 7.14668C99.9205 7.14668 99.458 7.32566 99.1579 7.6899C98.8579 8.05101 98.7079 8.56911 98.7079 9.24421V22.7525C98.7079 24.1122 99.3173 24.7935 100.542 24.7935C101.768 24.7935 102.358 24.1122 102.358 22.7525V16.124C102.358 14.8711 102.49 13.8318 102.752 12.9997C103.015 12.1676 103.458 11.5301 104.083 11.0843C104.705 10.6384 105.552 10.4154 106.618 10.4154C107.684 10.4154 108.528 10.6384 109.153 11.0843C109.775 11.5301 110.219 12.1644 110.484 12.9902C110.747 13.8161 110.878 14.8585 110.878 16.124V22.7149C110.878 23.3774 111.028 23.8892 111.328 24.2503C111.628 24.6114 112.084 24.7935 112.694 24.7935C113.303 24.7935 113.778 24.6146 114.078 24.2503C114.378 23.8892 114.528 23.3774 114.528 22.7149V15.9073C114.528 14.1018 114.272 12.5412 113.756 11.2224C113.241 9.90361 112.456 8.88311 111.403 8.16091H111.397V8.15777Z" fill="#14385F"/>
<path d="M134.109 7.46379C134.109 7.46379 134.099 7.45437 134.093 7.45123C134.024 7.40413 133.946 7.36645 133.868 7.32877C133.837 7.31307 133.809 7.29423 133.774 7.27853C133.702 7.25027 133.621 7.23457 133.543 7.21573C133.493 7.20317 133.449 7.18747 133.399 7.17805C133.265 7.15607 133.121 7.14351 132.968 7.14351H132.946C132.334 7.14665 131.883 7.32563 131.593 7.67417C131.533 7.74639 131.487 7.82803 131.44 7.91281C131.43 7.93165 131.415 7.94735 131.405 7.96619C131.393 7.99131 131.383 8.02271 131.371 8.05097C131.299 8.20483 131.249 8.37753 131.212 8.56907C131.024 8.42149 130.83 8.28019 130.624 8.15459C129.458 7.43239 128.002 7.07129 126.252 7.07129H126.067C125.026 7.07129 124.101 7.23143 123.292 7.54229C122.832 7.70557 122.398 7.91281 121.989 8.16401C120.801 8.89249 119.892 9.93184 119.257 11.2789C118.623 12.626 118.304 14.1991 118.304 15.9921C118.304 17.785 118.619 19.3173 119.257 20.6613C119.892 22.0052 120.804 23.0414 121.989 23.7761C122.348 23.9991 122.729 24.1843 123.129 24.3382C123.979 24.693 124.958 24.8783 126.07 24.8783H126.255C128.002 24.8783 129.461 24.5172 130.627 23.795C130.808 23.6819 130.98 23.5595 131.149 23.4339C131.112 24.6962 130.896 25.7324 130.499 26.5425C130.061 27.4343 129.418 28.0874 128.567 28.5019C127.717 28.9163 126.655 29.1236 125.386 29.1236C124.536 29.1236 123.811 29.0262 123.211 28.8347C122.611 28.6432 122.017 28.3763 121.432 28.0403C121.385 28.0152 121.339 27.99 121.298 27.9586C121.257 27.9272 121.21 27.9021 121.164 27.877C121.139 27.8644 121.12 27.8519 121.101 27.8393C121.082 27.8268 121.067 27.8142 121.057 27.8016C120.879 27.7169 120.72 27.6572 120.582 27.6195C120.445 27.585 120.285 27.5661 120.107 27.5661C119.82 27.5661 119.566 27.6446 119.345 27.8016C119.123 27.9586 118.954 28.1565 118.841 28.3982C118.726 28.64 118.67 28.8912 118.67 29.1581C118.67 29.425 118.732 29.6919 118.857 29.9337C118.982 30.1755 119.195 30.4078 119.495 30.6371C120.176 31.1552 121.004 31.5885 121.976 31.937C122.945 32.2856 124.086 32.4614 125.392 32.4614C128.399 32.4614 130.721 31.645 132.355 30.0153C133.99 28.3825 134.809 25.9741 134.809 22.7839V22.7494V9.2065C134.809 8.61931 134.687 8.16715 134.459 7.83431C134.362 7.68987 134.252 7.56427 134.118 7.46693H134.109V7.46379ZM124.104 11.0842C124.786 10.6383 125.608 10.4154 126.567 10.4154C127.527 10.4154 128.349 10.6383 129.039 11.0842C129.727 11.5301 130.252 12.1738 130.611 13.0153C130.943 13.7941 131.115 14.7047 131.14 15.7377C131.14 15.8194 131.146 15.8947 131.146 15.9764C131.146 16.0925 131.14 16.2056 131.137 16.3186C131.105 17.3109 130.933 18.1901 130.611 18.9374C130.252 19.7695 129.727 20.4101 129.039 20.8622C128.349 21.3144 127.527 21.5405 126.567 21.5405C125.608 21.5405 124.789 21.3144 124.104 20.8622C123.42 20.4101 122.904 19.7726 122.548 18.9468C122.195 18.1241 122.017 17.1382 122.017 15.9952C122.017 14.8522 122.195 13.8443 122.548 13.0059C122.901 12.1707 123.42 11.527 124.104 11.0811V11.0842Z" fill="#14385F"/>
<path d="M162.668 7.42619C162.387 7.24093 162.052 7.14673 161.671 7.14673C161.312 7.14673 160.98 7.25977 160.674 7.47957C160.368 7.69937 160.127 8.02907 159.946 8.46239L155.255 19.1384L150.385 8.46239C150.182 8.02907 149.926 7.70251 149.623 7.47957C149.317 7.25663 148.985 7.14673 148.626 7.14673C148.266 7.14673 147.929 7.24093 147.648 7.42619C147.366 7.61145 147.148 7.83753 146.991 8.10443C146.835 8.36819 146.757 8.62253 146.757 8.86431C146.757 9.20029 146.863 9.61792 147.079 10.1109L153.323 23.5407L153.155 23.9238C152.604 25.1986 152.067 26.2191 151.545 26.9853C151.023 27.7483 150.451 28.4077 149.829 28.9635C149.804 28.9761 149.782 28.9918 149.757 29.0075C149.732 29.0263 149.71 29.042 149.685 29.0514C149.373 29.3152 149.145 29.5852 148.995 29.8553C148.845 30.1253 148.77 30.4425 148.77 30.8036C148.77 31.0202 148.835 31.2557 148.967 31.5069C149.098 31.7581 149.298 31.9685 149.56 32.1286C149.823 32.2919 150.123 32.3736 150.46 32.3736C150.964 32.3736 151.467 32.1977 151.97 31.8492C152.833 31.2589 153.636 30.3859 154.38 29.2304C155.124 28.0749 155.824 26.7561 156.483 25.2771L163.224 10.1078C163.44 9.687 163.549 9.28193 163.549 8.89885C163.549 8.63509 163.474 8.36819 163.324 8.10443C163.174 7.84067 162.959 7.61459 162.677 7.42619H162.668Z" fill="#14385F"/>
<path d="M30.7535 9.39739V4.96369V4.67481C30.7597 4.41419 30.7347 4.15043 30.6816 3.89609C30.6597 3.80503 30.6316 3.71397 30.6003 3.62291L30.5785 3.56325C30.4941 3.33717 30.3816 3.12365 30.244 2.92268C29.9628 2.51448 29.5815 2.18164 29.1408 1.9587L26.6374 0.558257L26.3186 0.382417C25.4529 -0.104285 24.3996 -0.104285 23.5308 0.376137L23.5183 0.382417L15.4893 4.89147L15.383 4.95427L7.2446 0.385557L7.23209 0.379277C6.36325 -0.101145 5.31 -0.098005 4.44428 0.385557L4.10674 0.564537L1.62209 1.96184C1.17829 2.18164 0.797 2.51134 0.515719 2.91954C0.378203 3.11737 0.265691 3.33403 0.181306 3.56011L0.159429 3.61977C0.128175 3.71397 0.100047 3.80503 0.0781697 3.90551C0.0219134 4.15671 3.59273e-05 4.41733 3.59273e-05 4.67481V4.96055V9.31575V12.8483V14.7762C-0.0155908 15.4859 0.228186 16.1767 0.684487 16.7168L0.725117 16.7638C0.787624 16.8361 0.853256 16.902 0.922014 16.968C1.11891 17.1407 1.33143 17.2914 1.56271 17.417L1.81274 17.5583L13.1703 23.9168C15.2767 25.0943 15.4768 25.1006 17.5801 23.9168L28.9376 17.5457L29.1877 17.4044C29.4189 17.282 29.6315 17.1312 29.8284 16.9554C29.8971 16.8895 29.9628 16.8235 30.0253 16.7513L30.0659 16.7042C30.5441 16.1358 30.791 15.4042 30.7503 14.66V12.8483V9.39425H30.7535V9.39739Z" fill="#FBD0D3"/>
<path d="M0.381268 3.13696C0.303134 3.27198 0.234376 3.41328 0.17812 3.56086L0.156242 3.62052C0.124989 3.71472 0.0968607 3.80578 0.0749833 3.90627C0.0218523 4.15747 -2.51077e-05 4.41809 -2.51077e-05 4.67557V14.777C-0.0156519 15.4866 0.228125 16.1774 0.684427 16.7175L0.725056 16.7646C0.787563 16.8368 0.853195 16.9028 0.921953 16.9687C1.11885 17.1414 1.33137 17.2921 1.56265 17.4177L1.81268 17.559L13.1702 23.9175C14.2234 24.5079 14.8016 24.803 15.3767 24.803V11.5522L0.381268 3.13696Z" fill="#F16279"/>
<path d="M30.3753 3.13696C30.4534 3.27198 30.5221 3.41328 30.5784 3.56086L30.6003 3.62052C30.6315 3.71472 30.6597 3.80578 30.6815 3.90627C30.7347 4.16061 30.7597 4.41809 30.7565 4.67871V14.7801C30.7722 15.4898 30.5284 16.1806 30.0721 16.7206L30.0315 16.7677C29.969 16.84 29.9033 16.9059 29.8346 16.9718C29.6377 17.1445 29.4251 17.2953 29.1939 17.4209L28.9438 17.5622L17.5863 23.9207C16.5331 24.511 15.9549 24.8062 15.3798 24.8062V11.5553L30.3753 3.13696Z" fill="#F6A3AB"/>
<path d="M167.806 8.12012C167.675 7.89404 167.5 7.71506 167.278 7.58946C167.053 7.45758 166.806 7.39478 166.534 7.39478C166.262 7.39478 166.015 7.45758 165.79 7.58946C165.565 7.7182 165.387 7.89718 165.262 8.12012C165.131 8.3462 165.068 8.59426 165.068 8.86744C165.068 9.14062 165.131 9.38868 165.262 9.61476C165.393 9.84084 165.568 10.0198 165.79 10.1454C166.015 10.2773 166.262 10.3401 166.534 10.3401C166.806 10.3401 167.053 10.2773 167.278 10.1454C167.503 10.0167 167.681 9.8377 167.806 9.61476C167.937 9.38868 168 9.14062 168 8.86744C168 8.59426 167.934 8.3462 167.806 8.12012ZM167.425 9.4138C167.341 9.5708 167.225 9.6964 167.069 9.78432C166.915 9.87538 166.737 9.91934 166.531 9.91934C166.325 9.91934 166.15 9.87224 165.993 9.78432C165.84 9.6964 165.722 9.5708 165.637 9.4138C165.553 9.2568 165.512 9.07468 165.512 8.8643C165.512 8.65392 165.553 8.47494 165.637 8.3148C165.722 8.1578 165.837 8.0322 165.993 7.94428C166.147 7.85322 166.325 7.80926 166.531 7.80926C166.737 7.80926 166.912 7.85636 167.069 7.94428C167.225 8.0322 167.341 8.1578 167.425 8.3148C167.509 8.4718 167.55 8.65392 167.55 8.8643C167.55 9.07468 167.509 9.25366 167.425 9.4138Z" fill="#14385F"/>
<path d="M166.9 9.05579C166.925 9.04323 166.953 9.03695 166.975 9.02125C167.094 8.93961 167.15 8.80773 167.15 8.63817C167.15 8.45291 167.1 8.30846 166.994 8.21426C166.887 8.12006 166.731 8.06982 166.525 8.06982H166.181C166.106 8.06982 166.056 8.08866 166.025 8.13262C165.99 8.17344 165.975 8.2331 165.975 8.3116V9.37921C165.975 9.45457 165.99 9.51423 166.025 9.55505C166.059 9.59901 166.112 9.61785 166.181 9.61785C166.256 9.62099 166.306 9.59901 166.337 9.55819C166.372 9.51423 166.387 9.45771 166.387 9.38235V9.14685H166.462L166.75 9.50795C166.787 9.55191 166.815 9.58017 166.844 9.59587C166.872 9.61157 166.906 9.62099 166.95 9.62099C167.012 9.62413 167.062 9.60529 167.103 9.56133C167.144 9.51737 167.162 9.47341 167.162 9.42945C167.162 9.36665 167.144 9.31641 167.103 9.27559L166.9 9.06207V9.05579ZM166.384 8.44663H166.531C166.594 8.44663 166.644 8.45919 166.678 8.49059C166.712 8.52199 166.728 8.55339 166.728 8.60991C166.728 8.66643 166.712 8.70411 166.678 8.73551C166.644 8.76691 166.594 8.78261 166.531 8.78261H166.384V8.44977V8.44663Z" fill="#14385F"/>
<path d="M111.394 38.5498C111.372 38.1573 110.966 37.9029 110.456 37.9312L106.424 38.151C107.631 35.0455 108.475 33.2243 109.403 31.4785C111.009 28.4735 112.85 26.9537 113.635 26.9098C113.869 26.8972 113.994 27.0103 114.006 27.2458C114.028 27.6414 114.319 27.9397 114.788 27.9146C115.338 27.8832 115.894 27.2615 115.844 26.3571C115.804 25.6098 114.947 25.0226 113.694 25.0917C111.853 25.1922 109.09 27.8675 107.424 31.1927C105.94 34.2323 105.321 35.8839 104.427 38.2609L103.527 38.3111C102.824 38.3457 102.493 38.757 102.53 39.4667C102.558 39.9754 102.84 40.1198 103.702 40.0727C102.477 43.6115 101.064 49.4488 101.224 52.4381C101.293 53.6972 101.861 54.0614 102.449 54.03C103.074 53.9955 103.355 53.3487 103.333 52.9562C103.302 52.4035 103.015 52.1429 102.993 51.7504C102.849 49.0751 104.296 43.8281 105.809 39.8403C107.446 39.5923 109.084 39.4259 110.69 39.3379C111.044 39.3191 111.416 38.9831 111.394 38.5498Z" fill="#E9758A"/>
<path d="M137.75 37.9563C137.697 36.9735 137.043 36.4962 136.181 36.5433C135.162 36.5967 133.781 37.9344 132.265 39.6739C132.568 38.7508 132.837 37.8684 132.821 37.5921H132.818C132.793 37.1556 132.427 36.8981 131.918 36.9264C131.29 36.9609 131.049 37.567 130.79 38.6063C130.777 38.6566 130.765 38.7131 130.752 38.7696C130.546 38.8889 130.327 39.0302 130.155 39.1181C129.464 39.4698 128.814 39.7807 127.836 39.8341C127.445 39.856 127.28 38.958 127.264 38.6817V38.688C127.23 38.0191 126.486 37.3095 124.958 37.3911C123.561 37.4665 122.026 38.5341 120.929 40.0727C120.623 40.3176 120.31 40.7478 120.013 41.1654C118.779 43.0463 116.032 45.9979 114.466 46.0827C113.722 46.1235 113.263 45.596 113.209 44.6132C113.166 43.7873 113.597 41.5956 114.166 40.4589C116.15 38.6942 117.941 36.939 119.985 34.0282C122.607 30.257 123.029 27.8267 122.967 26.6868C122.923 25.861 122.254 25.1074 121.314 25.1577C119.082 25.277 117.426 27.3023 115.291 31.4408C113.3 35.3376 111.006 41.6176 111.184 44.9209C111.287 46.808 112.719 47.8756 114.285 47.7908C115.81 47.7061 117.785 46.0136 119.429 44.2018C119.416 44.4248 119.416 44.6477 119.429 44.8706C119.523 46.6416 120.707 47.4831 121.882 47.4203C124.664 47.2696 126.264 44.1453 127.039 41.7746C127.411 41.7526 128.874 41.605 130.068 41.0241C129.918 41.4669 129.755 41.9379 129.58 42.4214C129.03 43.9098 128.571 45.552 128.592 45.9853C128.624 46.538 129.196 46.9399 129.664 46.9148C129.899 46.9022 130.211 46.1361 130.483 45.3322C130.79 44.4467 131.174 43.5581 131.499 43.0274C132.69 41.0681 135.068 38.5341 135.578 38.5058C135.775 38.4964 135.818 38.5718 135.825 38.6911C135.837 38.8889 135.59 39.4133 135.609 39.7681C135.634 40.2391 136.003 40.5343 136.434 40.5123C137.568 40.4526 137.822 39.294 137.75 37.9563ZM116.826 32.2258H116.829C117.476 30.907 118.104 29.8802 118.666 29.0984C118.673 28.8534 118.729 28.6179 118.835 28.395C118.948 28.1532 119.116 27.9554 119.338 27.7984C119.529 27.6634 119.748 27.588 119.988 27.5723C120.32 27.2772 120.576 27.1327 120.717 27.1233C120.988 27.1076 121.113 27.2206 121.126 27.4561C121.17 28.282 120.482 30.0937 118.554 32.9606C117.063 35.2088 115.51 36.9515 114.76 37.6235C114.947 36.7474 115.375 35.1837 116.826 32.2258ZM122.229 45.8221C121.835 45.8409 121.382 45.4327 121.351 44.8424C121.223 42.4434 123.229 39.6111 124.792 39.4478C124.726 39.6865 124.664 40.0068 124.676 40.2423C124.701 40.6787 125.117 41.1277 125.355 41.156C125.408 42.1388 123.679 45.7436 122.229 45.8221Z" fill="#E9758A"/>
<path d="M142.607 34.3202C143.116 34.2919 144.141 33.6074 144.085 32.5838C144.035 31.6386 143.55 31.4282 143.082 31.4534C142.219 31.5005 141.635 32.3231 141.669 32.9511C141.7 33.5415 141.981 34.3547 142.607 34.3202Z" fill="#E9758A"/>
<path d="M151.536 37.2876C151.489 36.4617 150.595 35.8777 149.851 35.9185C148.323 36.0002 145.876 37.5231 145.322 39.3129C145.197 39.473 145.076 39.6457 144.954 39.8153C143.719 41.6961 141.044 44.5253 139.987 44.5818C139.634 44.6006 139.422 44.2584 139.406 43.9821C139.362 43.1971 140.312 40.4213 141.35 38.5122C141.566 38.1448 141.825 37.8528 141.797 37.3033C141.772 36.7914 141.322 36.5026 140.775 36.5308C140.225 36.5591 139.869 37.2091 139.441 38.0223C139.159 38.6283 137.368 42.5942 137.462 44.3243C137.537 45.6996 138.475 46.359 139.297 46.3151C141.066 46.2209 143.894 43.4985 145.713 41.2503C146.013 41.5548 146.407 41.7809 146.801 41.963H146.798C147.404 42.2456 148.129 42.6005 148.166 43.3101C148.201 43.9789 147.726 44.6352 146.982 44.676C146.357 44.7105 145.985 44.4122 145.957 43.8627C145.929 43.3101 145.526 43.1374 145.094 43.1594C144.547 43.1908 144.179 43.6429 144.21 44.2333C144.263 45.2161 145.335 46.1455 146.823 46.0639C149.132 45.9414 150.267 44.3777 150.192 43.0024C150.11 41.5046 148.945 41.0179 148.101 40.6285C147.62 40.4182 147.21 40.123 147.195 39.809C147.141 38.8262 148.845 37.6298 149.354 37.6016C149.589 37.589 149.71 37.702 149.72 37.859C149.739 38.173 149.323 38.5122 149.345 38.9047C149.376 39.4542 149.704 39.7116 150.251 39.6834C151.114 39.6394 151.586 38.1919 151.536 37.2876Z" fill="#E9758A"/>
<path d="M156.683 34.3673C157.721 33.956 158.955 33.576 159.74 33.5321C160.212 33.507 160.571 33.6451 160.58 33.8021C160.59 33.9999 160.521 34.1601 160.53 34.3579C160.543 34.5934 160.674 34.8226 161.143 34.7975C161.731 34.763 162.309 33.8272 162.265 33.0391C162.218 32.1348 161.493 31.78 160.043 31.8585C159.258 31.8993 158.486 32.1002 157.83 32.3326C158.821 30.3073 159.024 29.7044 159.552 29.2805C160.302 28.6086 160.443 28.2851 160.415 27.7733C160.384 27.183 160.093 26.8847 159.387 26.9224C158.799 26.9538 158.355 27.453 157.74 28.4327C157.083 29.4155 156.527 30.7469 155.286 33.2212C154.939 33.3562 154.549 33.419 154.236 33.4347H154.239C153.77 33.463 153.439 33.1647 153.048 33.1867C152.345 33.2244 151.979 33.7582 152.014 34.3862C152.048 35.0142 152.495 35.2654 154.374 35.1649C152.798 38.7633 151.12 43.3509 151.233 45.4359C151.292 46.538 151.711 47.0655 152.417 47.0278C153.005 46.9964 153.327 46.4281 153.308 46.0733C153.292 45.8346 152.998 45.4578 152.98 45.103C152.87 43.0966 154.699 38.3803 156.683 34.3673Z" fill="#E9758A"/>
<path d="M162.771 36.6784C162.724 35.8526 161.831 35.2686 161.087 35.3094C159.324 35.4036 156.333 37.4195 156.446 39.5453C156.499 40.4904 157.271 41.0022 158.036 41.3539C158.643 41.6365 159.368 41.9913 159.405 42.701C159.44 43.3698 158.965 44.0261 158.221 44.0669C157.596 44.1014 157.224 43.8063 157.196 43.2536C157.168 42.701 156.764 42.5283 156.333 42.5502C155.786 42.5816 155.417 43.0338 155.449 43.6241C155.502 44.607 156.574 45.5364 158.061 45.4548C160.371 45.3323 161.506 43.7686 161.431 42.3932C161.349 40.8955 160.184 40.4088 159.34 40.0194C158.858 39.809 158.449 39.5139 158.433 39.1999C158.38 38.217 160.084 37.0207 160.593 36.9924C160.827 36.9799 160.949 37.0929 160.959 37.2499C160.977 37.5639 160.562 37.903 160.584 38.2955C160.615 38.845 160.943 39.1025 161.49 39.0743C162.353 39.0303 162.824 37.5828 162.774 36.6784H162.771Z" fill="#E9758A"/>
</g>
<defs>
<clipPath id="clip0_6734_10929">
<rect width="168" height="54.0302" fill="white"/>
</clipPath>
</defs>
</svg>
