<svg xmlns="http://www.w3.org/2000/svg" xmlns:xlink="http://www.w3.org/1999/xlink" width="212.761" height="19.371" viewBox="0 0 212.761 19.371">
  <defs>
    <clipPath id="clip-path">
      <path id="Path_13385" data-name="Path 13385" d="M57.988,34.979a1.956,1.956,0,1,0,1.958-1.886,1.923,1.923,0,0,0-1.958,1.886" transform="translate(-57.988 -33.093)" fill="none"/>
    </clipPath>
    <radialGradient id="radial-gradient" cx="0.5" cy="0.5" r="0.506" gradientTransform="matrix(0.977, 0, 0, -1, -0.105, 7.414)" gradientUnits="objectBoundingBox">
      <stop offset="0" stop-color="#ffeee0"/>
      <stop offset="0.006" stop-color="#ffeee0"/>
      <stop offset="0.11" stop-color="#fee8d6"/>
      <stop offset="0.28" stop-color="#fddabe"/>
      <stop offset="0.496" stop-color="#fac496"/>
      <stop offset="0.748" stop-color="#f7a45e"/>
      <stop offset="1" stop-color="#f48120"/>
    </radialGradient>
  </defs>
  <g id="Group_14587" data-name="Group 14587" transform="translate(-63 -1308.001)">
    <g id="Group_14542" data-name="Group 14542" transform="translate(63 1307.765)">
      <rect id="Rectangle_3595" data-name="Rectangle 3595" width="31" height="19" rx="1" transform="translate(0 0.236)" fill="#f7f8f9"/>
      <g id="Group_14541" data-name="Group 14541" transform="translate(5.96 6.474)">
        <path id="Path_13316" data-name="Path 13316" d="M53.123,33.309H51.594l.955-5.871h1.529Z" transform="translate(-45.002 -27.332)" fill="#0066b2"/>
        <path id="Path_13317" data-name="Path 13317" d="M30.475,27.437l-1.457,4.038-.173-.869h0l-.514-2.64a.654.654,0,0,0-.725-.529H25.2l-.028.1a5.707,5.707,0,0,1,1.6.671l1.328,5.1h1.593l2.432-5.871Z" transform="translate(-25.168 -27.332)" fill="#0066b2"/>
        <path id="Path_13318" data-name="Path 13318" d="M82.5,33.309h1.4l-1.224-5.871H81.449a.7.7,0,0,0-.706.437l-2.28,5.434h1.593l.319-.872h1.943Zm-1.682-2.077.8-2.2.452,2.2Z" transform="translate(-65.167 -27.332)" fill="#0066b2"/>
        <path id="Path_13319" data-name="Path 13319" d="M65.849,28.534l.218-1.261a4.414,4.414,0,0,0-1.375-.256c-.759,0-2.56.332-2.56,1.944,0,1.517,2.115,1.536,2.115,2.332s-1.9.654-2.523.152L61.5,32.763a4.281,4.281,0,0,0,1.726.332c1.043,0,2.617-.54,2.617-2.01,0-1.527-2.133-1.669-2.133-2.333s1.489-.579,2.143-.218" transform="translate(-52.434 -27.017)" fill="#0066b2"/>
        <path id="Path_13320" data-name="Path 13320" d="M28.845,30.606l-.514-2.64a.654.654,0,0,0-.725-.529H25.2l-.028.1a5.924,5.924,0,0,1,2.269,1.139,4.574,4.574,0,0,1,1.408,1.931" transform="translate(-25.169 -27.332)" fill="#f9a533"/>
      </g>
    </g>
    <g id="Group_14543" data-name="Group 14543" transform="translate(98.047 1307.765)">
      <rect id="Rectangle_3594" data-name="Rectangle 3594" width="31" height="19" rx="1" transform="translate(-0.047 0.236)" fill="#f7f8f9"/>
      <g id="Group_14540" data-name="Group 14540" transform="translate(5.929 3.494)">
        <path id="Path_13321" data-name="Path 13321" d="M60.91,27.922l.289-.007.286-.021.28-.036.278-.05.271-.062.267-.076.261-.089.256-.1.25-.114.242-.123.235-.137.229-.146.22-.157.212-.167.2-.176.2-.187.187-.2.176-.2.167-.212.157-.22.146-.229.136-.235.123-.242.114-.249.1-.256.089-.261.076-.267.062-.271.049-.278.036-.28.021-.286.007-.29-.007-.288-.021-.284-.036-.28-.049-.275-.062-.27-.076-.265-.089-.261-.1-.254-.114-.248-.123-.243L65.72,19.4l-.146-.229-.157-.22-.167-.21-.176-.2-.187-.2-.2-.186-.2-.176-.212-.167-.22-.157-.229-.146-.235-.134-.242-.123-.25-.114-.256-.1-.261-.089-.267-.076-.271-.062-.278-.049-.28-.036L61.2,16.7l-.289-.007-.288.007-.286.021-.28.036-.277.049-.271.062-.267.076-.26.089-.256.1-.248.114-.24.123L58,17.507l-.227.146-.22.157-.212.167-.2.176-.2.186-.185.2-.176.2-.167.21-.155.22-.146.229-.135.233-.125.243-.112.248-.1.254-.087.261-.076.265-.062.27-.049.275-.036.28-.021.284-.007.288.007.29.021.286.036.28.049.278.062.271.076.267.087.261.1.256.112.249.125.242.135.235.146.229.155.22.167.212.176.2.185.2.2.187.2.176.212.167.22.157.227.146.235.137.24.123.248.114.256.1.26.089.267.076.271.062.277.05.28.036.286.021Z" transform="translate(-47.775 -16.695)" fill="#fbb231" fill-rule="evenodd"/>
        <path id="Path_13322" data-name="Path 13322" d="M30.742,27.922l.287-.007.286-.021.28-.036.276-.05.271-.062.267-.076.26-.089.255-.1.248-.114.24-.123.235-.137.227-.146.22-.157.212-.167.2-.176.2-.187.186-.2.176-.2.166-.212.155-.22.146-.229.134-.235.125-.242.112-.249.1-.256.087-.261.076-.267.063-.271.049-.278.036-.28.02-.286.008-.29-.008-.288-.02-.284-.036-.28-.049-.275-.063-.27-.076-.265-.087-.261-.1-.254-.112-.248-.125-.243-.134-.233-.146-.229-.155-.22-.166-.21-.176-.2-.186-.2-.2-.186-.2-.176L34.1,17.81l-.22-.157-.227-.146-.235-.134-.24-.123-.248-.114-.255-.1-.26-.089-.267-.076-.271-.062-.276-.049-.28-.036L31.03,16.7l-.287-.007-.29.007-.286.021-.28.036-.278.049-.271.062-.267.076-.261.089-.255.1-.25.114-.242.123-.235.134-.229.146-.22.157-.212.167-.2.176-.195.186-.187.2-.176.2-.167.21-.157.22-.146.229-.136.233-.123.243-.114.248-.1.254-.089.261-.076.265-.062.27-.049.275-.036.28-.021.284-.007.288.007.29.021.286.036.28.049.278.062.271.076.267.089.261.1.256.114.249.123.242.136.235.146.229.157.22.167.212.176.2.187.2.195.187.2.176.212.167.22.157.229.146.235.137.242.123.25.114.255.1.261.089.267.076.271.062.278.05.28.036.286.021Z" transform="translate(-25.118 -16.695)" fill="#ec1c2e" fill-rule="evenodd"/>
        <path id="Path_13323" data-name="Path 13323" d="M60.082,24.408h2.982V24.1H60.339Z" transform="translate(-51.36 -22.255)" fill="#fbb231" fill-rule="evenodd"/>
        <path id="Path_13324" data-name="Path 13324" d="M58.29,27.125h3.429v-.305h-3.25Z" transform="translate(-50.015 -24.294)" fill="#fbb231" fill-rule="evenodd"/>
        <path id="Path_13325" data-name="Path 13325" d="M56.954,29.835h3.763V29.53h-3.63Z" transform="translate(-49.012 -26.328)" fill="#fbb231" fill-rule="evenodd"/>
        <path id="Path_13326" data-name="Path 13326" d="M56.035,32.553h3.992v-.3h-3.9Z" transform="translate(-48.323 -28.368)" fill="#fbb231" fill-rule="evenodd"/>
        <path id="Path_13327" data-name="Path 13327" d="M56.282,45.685H60.15v-.3H56.187Z" transform="translate(-48.437 -38.225)" fill="#fbb231" fill-rule="evenodd"/>
        <path id="Path_13328" data-name="Path 13328" d="M57.285,48.4h3.583v-.3H57.143Z" transform="translate(-49.154 -40.264)" fill="#fbb231" fill-rule="evenodd"/>
        <path id="Path_13329" data-name="Path 13329" d="M58.747,51.113h3.181v-.3H58.556Z" transform="translate(-50.214 -42.298)" fill="#fbb231" fill-rule="evenodd"/>
        <path id="Path_13330" data-name="Path 13330" d="M60.736,53.824h2.628v-.307h-2.9Z" transform="translate(-51.65 -44.331)" fill="#fbb231" fill-rule="evenodd"/>
        <path id="Path_13331" data-name="Path 13331" d="M55.5,35.263h4.126v-.3H55.555Z" transform="translate(-47.919 -30.402)" fill="#fbb231" fill-rule="evenodd"/>
        <path id="Path_13332" data-name="Path 13332" d="M65.576,42.975H67.15V42.67H65.633Z" transform="translate(-55.483 -36.19)" fill="#fbb231" fill-rule="evenodd"/>
        <path id="Path_13333" data-name="Path 13333" d="M66.078,40.26h1.448v-.307H66.135Z" transform="translate(-55.86 -34.151)" fill="#fbb231" fill-rule="evenodd"/>
        <path id="Path_13334" data-name="Path 13334" d="M55.079,39.953h.409v.307H55.1Z" transform="translate(-47.605 -34.151)" fill="#fbb231" fill-rule="evenodd"/>
        <path id="Path_13335" data-name="Path 13335" d="M47.234,37.036l-.026,0-.026,0-.025,0-.024,0-.023,0-.025,0-.024,0-.027,0-.026,0-.03,0-.034,0-.036,0h-.04l-.043,0-.049,0-.055,0-.038.006-.036.006-.032.011-.028.011-.027.013-.024.015-.019.019-.017.017-.011.021-.009.021,0,.023v.023l.006.025.008.024.015.025.019.025.038.036.046.029.053.024.057.021.06.019.062.021.063.023.061.024.057.032.053.04.047.048.04.059.03.072.019.085.007.1-.007.119-.013.089-.023.078-.03.072-.038.062-.043.055-.05.047-.053.042-.058.036-.061.028-.062.024-.064.019-.066.015-.065.012-.062.005-.062,0-.059,0h-.082l-.076,0h-.066l-.062,0-.057,0-.051,0-.045,0-.044-.006-.04,0-.036-.007L45.8,38.6l-.032-.009-.032-.007-.03-.012-.03-.011-.032-.011.085-.418.017,0,.02.006.027.007.032.008.034.007.038.007.042.009.045.008.048.007.049.008.051.005.053.006.055,0,.055,0h.054l.055,0,.055-.011.044-.015.034-.021.027-.026.019-.026.015-.031.009-.03.007-.028,0-.055-.017-.047-.032-.038-.047-.032-.057-.028L46.4,37.8l-.074-.027-.074-.03-.076-.034-.072-.04-.066-.049-.061-.059-.047-.072L45.9,37.4l-.017-.1,0-.121.009-.074.014-.07.019-.064.022-.06.03-.057.034-.049.04-.047.047-.041.055-.036.06-.03.068-.028.076-.021.085-.017.093-.013.1-.007.112,0h.07l.064,0,.059,0,.053,0,.047,0,.043,0,.038,0,.034,0,.032,0,.027.006.024,0,.023,0,.019,0,.017,0,.017,0,.015,0Z" transform="translate(-40.524 -31.603)" fill="#fff" fill-rule="evenodd"/>
        <path id="Path_13336" data-name="Path 13336" d="M47.234,37.036h0l-.026,0-.026,0-.025,0-.024,0-.023,0-.025,0-.024,0-.027,0-.026,0-.03,0-.034,0-.036,0h-.04l-.043,0-.049,0-.055,0-.038.006-.036.006-.032.011-.028.011-.027.013-.024.015-.019.019-.017.017-.011.021-.009.021,0,.023v.023l.006.025.008.024.015.025.019.025.038.036.046.029.053.024.057.021.06.019.062.021.063.023.061.024.057.032.053.04.047.048.04.059.03.072.019.085.007.1-.007.119-.013.089-.023.078-.03.072-.038.062-.043.055-.05.047-.053.042-.058.036-.061.028-.062.024-.064.019-.066.015-.065.012-.062.005-.062,0-.059,0h-.082l-.076,0h-.066l-.062,0-.057,0-.051,0-.045,0-.044-.006-.04,0-.036-.007L45.8,38.6l-.032-.009-.032-.007-.03-.012-.03-.011-.032-.011.085-.418.017,0,.02.006.027.007.032.008.034.007.038.007.042.009.045.008.048.007.049.008.051.005.053.006.055,0,.055,0h.054l.055,0,.055-.011.044-.015.034-.021.027-.026.019-.026.015-.031.009-.03.007-.028,0-.055-.017-.047-.032-.038-.047-.032-.057-.028L46.4,37.8l-.074-.027-.074-.03-.076-.034-.072-.04-.066-.049-.061-.059-.047-.072L45.9,37.4l-.017-.1,0-.121.009-.074.014-.07.019-.064.022-.06.03-.057.034-.049.04-.047.047-.041.055-.036.06-.03.068-.028.076-.021.085-.017.093-.013.1-.007.112,0h.07l.064,0,.059,0,.053,0,.047,0,.043,0,.038,0,.034,0,.032,0,.027.006.024,0,.023,0,.019,0,.017,0,.017,0,.015,0-.1.428" transform="translate(-40.524 -31.603)" fill="none" stroke="#fff" stroke-miterlimit="2.613" stroke-width="0.216"/>
        <path id="Path_13337" data-name="Path 13337" d="M52.7,34.883h.525l-.078.458h.316l-.068.428-.334-.009-.181,1.057,0,.038.009.032.019.024.025.021.034.013.038.011.041.007.046,0,.041,0,.038,0,.034-.006.03-.007.025-.007.017-.006.011,0,0,0-.066.352-.013.009-.013.007-.013.007-.013.007-.013.006-.015.006-.017.005-.017.006-.019.005-.019,0-.022,0-.022,0-.025,0-.029,0-.03,0-.032,0h-.144l-.076-.006-.066-.007-.06-.011-.051-.013-.044-.017-.036-.018-.032-.023-.025-.025-.019-.026-.013-.032-.009-.032-.006-.036,0-.04v-.042L52.329,37l.006-.047Z" transform="translate(-45.536 -30.345)" fill="#fff" fill-rule="evenodd"/>
        <path id="Path_13338" data-name="Path 13338" d="M52.7,34.883h.525l-.078.458h.316l-.068.428-.334-.009-.181,1.057,0,.038.009.032.019.024.025.021.034.013.038.011.041.007.046,0,.041,0,.038,0,.034-.006.03-.007.025-.007.017-.006.011,0,0,0-.066.352-.013.009-.013.007-.013.007-.013.007-.013.006-.015.006-.017.005-.017.006-.019.005-.019,0-.022,0-.022,0-.025,0-.029,0-.03,0-.032,0h-.144l-.076-.006-.066-.007-.06-.011-.051-.013-.044-.017-.036-.018-.032-.023-.025-.025-.019-.026-.013-.032-.009-.032-.006-.036,0-.04v-.042L52.329,37l.006-.047.361-2.066" transform="translate(-45.536 -30.345)" fill="none" stroke="#fff" stroke-miterlimit="2.613" stroke-width="0.216"/>
        <path id="Path_13339" data-name="Path 13339" d="M56.892,37.741h0l-.006.032,0,.034,0,.036.008.036.013.036.015.034.02.036.023.032.026.032.028.028.031.028.034.023.034.021.038.017.038.013.038.007.049.007.048.006.049.005.049,0,.049,0h.051l.049,0,.051,0,.051-.007.051-.01.053-.011.051-.017.053-.021.055-.023.053-.03.055-.032-.076.466-.03.015-.03.015-.03.011-.028.012-.029.009-.03.009-.03.007-.032.006-.034.006-.038,0-.04,0-.044,0-.049,0h-.265l-.095-.009-.1-.013-.095-.023-.093-.028-.089-.036-.085-.047-.08-.055-.074-.064-.064-.078-.055-.087-.046-.1-.032-.112-.021-.127-.006-.14.01-.155.007-.061.011-.07.015-.074.021-.08.029-.081.034-.082.043-.083.053-.079.06-.076.074-.072.084-.064.095-.057.11-.048.123-.034.136-.023.154-.008.074,0,.078.007.078.013.078.019.076.029.074.034.068.045.062.053.057.065.047.076.038.087.027.1.015.113,0,.129-.013.144-.029.159-.009.116h-1.38l.087-.373h.829l0-.047,0-.045,0-.042-.007-.038-.013-.036-.013-.032-.019-.028-.019-.026-.022-.022-.025-.019-.028-.017-.028-.015L57.446,37l-.03-.008-.032-.006-.034,0-.036,0-.034.006L57.248,37l-.032.011-.032.015-.028.017-.029.021-.024.022-.025.026-.023.028-.021.03-.017.032L57,37.234l-.013.038-.011.038-.007.04-.076.392" transform="translate(-48.55 -31.604)" fill="none" stroke="#fff" stroke-miterlimit="2.613" stroke-width="0.216"/>
        <path id="Path_13340" data-name="Path 13340" d="M70.848,35.2l-.024-.013-.024-.011-.027-.013-.028-.013-.029-.011-.032-.011-.032-.011-.034-.011-.036-.009-.036-.007-.039-.008-.04-.006-.044,0-.043,0h-.14l-.049,0-.051.006-.053.009-.053.015-.053.021-.053.027-.053.034-.051.042-.049.049-.047.061-.045.07-.042.083-.04.095-.036.107-.03.121-.012.068-.007.066,0,.066,0,.065.005.064.013.061.017.057.021.057.028.051.034.049.04.044.045.04.051.034.058.028.065.025.072.017.025.005.029.006.034,0,.038,0,.041,0h.091l.047,0,.049-.006.049-.009.047-.013.047-.015.047-.021.044-.024.04-.03.038-.034-.085.506-.012.009-.011.011L70.505,37l-.017.011-.021.015-.027.013-.03.013-.034.011-.043.013-.049.009-.057.008-.067.007-.074,0-.086,0-.1,0L69.8,37.1l-.087-.009-.087-.019-.087-.028-.087-.038-.083-.045-.08-.057-.076-.066-.07-.076-.063-.085-.053-.095-.045-.106-.034-.116-.023-.127-.008-.134,0-.148.02-.157.015-.077.017-.076.019-.074.019-.07.02-.066.025-.066.025-.063.026-.059.029-.059.028-.055.032-.053.034-.049.034-.048.038-.045.038-.042.04-.04.043-.038.044-.036.046-.032.047-.03.051-.028.051-.024.053-.023.055-.021.059-.019.058-.015.061-.013.065-.011.064-.01.068-.007.068,0,.072,0,.061,0,.058,0,.057.006.057.007.053.007.051.011.049.009.045.011.044.011.038.011.036.011.03.011.027.009.023.008.017.007.011,0Z" transform="translate(-57.99 -30.088)" fill="#fff" fill-rule="evenodd"/>
        <path id="Path_13341" data-name="Path 13341" d="M70.848,35.2h0l-.024-.013-.024-.011-.027-.013-.028-.013-.029-.011-.032-.011-.032-.011-.034-.011-.036-.009-.036-.007-.039-.008-.04-.006-.044,0-.043,0h-.14l-.049,0-.051.006-.053.009-.053.015-.053.021-.053.027-.053.034-.051.042-.049.049-.047.061-.045.07-.042.083-.04.095-.036.107-.03.121-.012.068-.007.066,0,.066,0,.065.005.064.013.061.017.057.021.057.028.051.034.049.04.044.045.04.051.034.058.028.065.025.072.017.025.005.029.006.034,0,.038,0,.041,0h.091l.047,0,.049-.006.049-.009.047-.013.047-.015.047-.021.044-.024.04-.03.038-.034-.085.506-.012.009-.011.011L70.505,37l-.017.011-.021.015-.027.013-.03.013-.034.011-.043.013-.049.009-.057.008-.067.007-.074,0-.086,0-.1,0L69.8,37.1l-.087-.009-.087-.019-.087-.028-.087-.038-.083-.045-.08-.057-.076-.066-.07-.076-.063-.085-.053-.095-.045-.106-.034-.116-.023-.127-.008-.134,0-.148.02-.157.015-.077.017-.076.019-.074.019-.07.02-.066.025-.066.025-.063.026-.059.029-.059.028-.055.032-.053.034-.049.034-.048.038-.045.038-.042.04-.04.043-.038.044-.036.046-.032.047-.03.051-.028.051-.024.053-.023.055-.021.059-.019.058-.015.061-.013.065-.011.064-.01.068-.007.068,0,.072,0,.061,0,.058,0,.057.006.057.007.053.007.051.011.049.009.045.011.044.011.038.011.036.011.03.011.027.009.023.008.017.007.011,0-.1.524" transform="translate(-57.99 -30.088)" fill="none" stroke="#fff" stroke-miterlimit="2.613" stroke-width="0.216"/>
        <path id="Path_13342" data-name="Path 13342" d="M90.129,37.4H89.6l.038-.21v-.019l-.03.038-.032.034-.032.03-.034.027-.034.024-.034.02-.034.017-.036.017-.036.013L89.3,37.4l-.036.009-.038.005-.037.006-.036,0-.038,0h-.038l-.1-.008-.091-.021-.083-.032-.076-.043-.068-.055L88.6,37.2l-.053-.07-.045-.079-.037-.086-.03-.089-.021-.093-.015-.1-.005-.1,0-.1.009-.1.017-.1.028-.112.034-.106.04-.1.047-.091.049-.085.057-.076.059-.068L88.8,35.6l.066-.055.07-.047.072-.042.072-.032.076-.027.076-.017.076-.011.078,0h.055l.053.006.049.009.045.013.043.015.038.017.038.021.034.021.03.022.028.025.025.025.023.024.019.025.017.025.015.023.011.023.133-.744h.515Z" transform="translate(-72.61 -30.374)" fill="#fff" fill-rule="evenodd"/>
        <path id="Path_13343" data-name="Path 13343" d="M90.129,37.4H89.6l.038-.21v-.019l-.03.038-.032.034-.032.03-.034.027-.034.024-.034.02-.034.017-.036.017-.036.013L89.3,37.4l-.036.009-.038.005-.037.006-.036,0-.038,0h-.038l-.1-.008-.091-.021-.083-.032-.076-.043-.068-.055L88.6,37.2l-.053-.07-.045-.079-.037-.086-.03-.089-.021-.093-.015-.1-.005-.1,0-.1.009-.1.017-.1.028-.112.034-.106.04-.1.047-.091.049-.085.057-.076.059-.068L88.8,35.6l.066-.055.07-.047.072-.042.072-.032.076-.027.076-.017.076-.011.078,0h.055l.053.006.049.009.045.013.043.015.038.017.038.021.034.021.03.022.028.025.025.025.023.024.019.025.017.025.015.023.011.023.133-.744h.515L90.129,37.4" transform="translate(-72.61 -30.374)" fill="none" stroke="#fff" stroke-miterlimit="2.613" stroke-width="0.216"/>
        <path id="Path_13344" data-name="Path 13344" d="M91.1,39.662l.053,0,.049-.011.046-.013.044-.021.04-.023.038-.029.036-.032.032-.034.028-.038.027-.042.024-.043.021-.045.019-.048.015-.049.013-.051.01-.051.009-.053.006-.055v-.1l-.006-.049-.007-.047-.013-.046-.015-.043-.019-.038-.023-.036-.024-.03-.029-.026-.032-.023-.034-.015-.036-.009-.039,0-.052,0-.047.007-.044.015-.043.019-.038.025-.038.03-.032.032-.032.036-.028.041-.026.044-.025.045-.021.049-.019.051L90.874,39l-.015.054-.011.055-.01.084,0,.091.013.093.025.089.038.078.049.062.062.042Z" transform="translate(-74.443 -33.097)" fill="#fbb231" fill-rule="evenodd"/>
        <path id="Path_13345" data-name="Path 13345" d="M40.1,38.252l-.076.42h-.477l.013-.078.01-.07.007-.053.008-.028-.026.03-.031.03-.036.028-.04.026-.045.026-.047.023-.049.023-.051.019-.055.017-.054.013-.055.011-.057.007-.055,0-.055,0-.053-.005-.051-.007-.066-.017-.061-.019-.053-.025L38.6,38.6l-.041-.03-.038-.034-.03-.036-.027-.038-.022-.04-.019-.042-.015-.041L38.4,38.3l-.007-.043-.006-.044,0-.042v-.042l.005-.074.011-.07.019-.066.024-.064.03-.061.034-.055.04-.053.046-.047.047-.044.053-.04.055-.036.056-.03.061-.026.063-.021.064-.017.066-.011h0l.009,0,.013,0,.02,0,.023,0,.026,0,.028,0,.032,0,.032,0,.032,0,.034,0,.03,0,.03,0,.028,0,.027,0h.064l.046,0,.041,0h.042l.034,0,.027,0,.019,0H39.7l0-.013.011-.034.009-.04,0-.036-.008-.041-.017-.038-.023-.034-.03-.029-.036-.024-.04-.017-.045-.011-.049,0-.053,0-.057,0h-.059l-.06,0-.063,0-.061.005-.06.006-.059.008-.057.007L38.9,37.1l-.049.009-.045.009-.042.012-.034.011-.026.013-.021.011.135-.456.042-.017.041-.015.046-.013.045-.01.046-.009.049-.007.049-.008.051,0,.053,0,.055,0,.057,0h.182l.066,0,.066,0,.053,0,.057.009.059.013.061.017.059.023.057.026.057.032.054.036.047.042.042.045.038.051.028.057.019.061.011.064v.072l-.011.076Z" transform="translate(-35.071 -31.649)" fill="#fff" fill-rule="evenodd"/>
        <path id="Path_13346" data-name="Path 13346" d="M40.1,38.252l-.076.42h-.477l.013-.078.01-.07.007-.053.008-.028-.026.03-.031.03-.036.028-.04.026-.045.026-.047.023-.049.023-.051.019-.055.017-.054.013-.055.011-.057.007-.055,0-.055,0-.053-.005-.051-.007-.066-.017-.061-.019-.053-.025L38.6,38.6l-.041-.03-.038-.034-.03-.036-.027-.038-.022-.04-.019-.042-.015-.041L38.4,38.3l-.007-.043-.006-.044,0-.042v-.042l.005-.074.011-.07.019-.066.024-.064.03-.061.034-.055.04-.053.046-.047.047-.044.053-.04.055-.036.056-.03.061-.026.063-.021.064-.017.066-.011h0l.009,0,.013,0,.02,0,.023,0,.026,0,.028,0,.032,0,.032,0,.032,0,.034,0,.03,0,.03,0,.028,0,.027,0h.064l.046,0,.041,0h.042l.034,0,.027,0,.019,0H39.7l0-.013.011-.034.009-.04,0-.036-.008-.041-.017-.038-.023-.034-.03-.029-.036-.024-.04-.017-.045-.011-.049,0-.053,0-.057,0h-.059l-.06,0-.063,0-.061.005-.06.006-.059.008-.057.007L38.9,37.1l-.049.009-.045.009-.042.012-.034.011-.026.013-.021.011.135-.456.042-.017.041-.015.046-.013.045-.01.046-.009.049-.007.049-.008.051,0,.053,0,.055,0,.057,0h.182l.066,0,.066,0,.053,0,.057.009.059.013.061.017.059.023.057.026.057.032.054.036.047.042.042.045.038.051.028.057.019.061.011.064v.072l-.011.076-.191,1" transform="translate(-35.071 -31.649)" fill="none" stroke="#fff" stroke-miterlimit="2.613" stroke-width="0.216"/>
        <path id="Path_13347" data-name="Path 13347" d="M41.42,41.079l0-.009-.007-.009-.011-.006-.019,0-.021,0-.024,0h-.057l-.03,0-.032,0-.03,0-.03,0-.028,0-.026.005-.023.006-.021.005-.013,0-.015.006-.021.007-.021.009-.024.011-.025.013-.026.013-.025.015-.026.019-.025.019-.023.023-.02.023-.019.024-.013.027-.011.03-.006.03,0,.064.009.051.019.038.024.028.028.019.032.011.03.006.03,0,.057,0,.051-.006.049-.008.044-.011.037-.013.036-.017.032-.017.028-.021.025-.019.022-.023.019-.021.015-.023.013-.023.012-.022.009-.021.005-.021.015-.055.013-.063.011-.06Z" transform="translate(-36.843 -34.971)" fill="#ec1c2e" fill-rule="evenodd"/>
        <path id="Path_13348" data-name="Path 13348" d="M27.774,37.369h-.515l.43-2.486h.9l.086,1.475.619-1.475h.936l-.44,2.486H29.27l.326-1.858h-.02L28.8,37.369h-.581l0-.078-.013-.207-.017-.293-.019-.338-.019-.339-.017-.3-.013-.216,0-.091h-.028Z" transform="translate(-26.726 -30.345)" fill="#fff" fill-rule="evenodd"/>
        <path id="Path_13349" data-name="Path 13349" d="M27.774,37.369h-.515l.43-2.486h.9l.086,1.475.619-1.475h.936l-.44,2.486H29.27l.326-1.858h-.02L28.8,37.369h-.581l0-.078-.013-.207-.017-.293-.019-.338-.019-.339-.017-.3-.013-.216,0-.091h-.028l-.315,1.858" transform="translate(-26.726 -30.345)" fill="none" stroke="#fff" stroke-miterlimit="2.613" stroke-width="0.216"/>
        <path id="Path_13350" data-name="Path 13350" d="M77.805,38.252l-.078.42h-.475l0-.078,0-.068v-.051l0-.022-.024.028-.029.028-.034.026-.038.027-.039.024-.046.023L77,38.633l-.047.019-.051.015-.053.015-.053.01-.053.007-.055,0-.053,0-.051-.005-.051-.007-.068-.017-.06-.019-.053-.025L76.3,38.6l-.041-.03-.036-.034L76.2,38.5l-.026-.038-.023-.04-.017-.042-.015-.041-.009-.042-.008-.043-.005-.044,0-.042v-.042l0-.074.011-.07.017-.066.025-.064.028-.061.036-.055.04-.053.044-.047.049-.044.051-.04.055-.036.059-.03.059-.026.062-.021.063-.017.064-.011h0l.009,0,.013,0,.019,0,.025,0,.026,0,.028,0,.03,0,.032,0,.034,0,.032,0,.032,0,.03,0,.026,0,.027,0h.066l.046,0,.043,0h.042l.036,0,.03,0,.017,0h.008l0-.013.006-.034.005-.04,0-.036-.007-.041-.015-.038-.025-.034-.029-.029-.034-.024-.04-.017-.042-.011-.046,0-.053,0-.057,0h-.059l-.061,0-.062,0-.061.005-.061.006-.059.008-.057.007-.055.009-.049.009-.045.009-.042.012-.034.011-.027.013-.021.011.133-.456.041-.017.044-.015.043-.013.045-.01.048-.009.047-.007.049-.008.051,0,.053,0,.055,0,.055,0h.178l.064,0,.064,0,.053,0,.057.009.059.013.061.017.059.023.058.026.057.032.053.036.048.042.043.045.038.051.029.057L78,37.04l.013.064v.072L78,37.252Z" transform="translate(-63.373 -31.649)" fill="#fff" fill-rule="evenodd"/>
        <path id="Path_13351" data-name="Path 13351" d="M82.622,43.592l.011-.011.078-.42-.023,0-.078.421.011-.012v.027l.009,0,0-.009Z" transform="translate(-68.269 -36.555)" fill="#fff" fill-rule="evenodd"/>
        <path id="Path_13352" data-name="Path 13352" d="M80.7,44.809l.011.013h.475V44.8h-.475l.011.013H80.7l0,.013h.013Z" transform="translate(-66.833 -37.785)" fill="#fff" fill-rule="evenodd"/>
        <path id="Path_13353" data-name="Path 13353" d="M80.736,43.953l-.017-.015-.007.03,0,.051v.068l0,.078h.023l0-.078,0-.068,0-.051v-.015l-.017-.015Z" transform="translate(-66.838 -37.142)" fill="#fff" fill-rule="evenodd"/>
        <path id="Path_13354" data-name="Path 13354" d="M77.874,44.2h0l.053.007.051.005.053,0,.055,0,.055-.007.053-.01.053-.015.053-.015.047-.019.049-.022.046-.023.039-.026.04-.027.034-.026.031-.03.025-.029-.019-.015-.025.028-.026.027-.034.026-.036.026-.04.023-.045.023-.046.023-.047.019-.049.015-.053.015-.053.009-.051.007-.055,0h-.053l-.051-.005-.049-.007Z" transform="translate(-64.713 -37.142)" fill="#fff" fill-rule="evenodd"/>
        <path id="Path_13355" data-name="Path 13355" d="M76.037,42.67h0l0,.042,0,.042.006.046.007.043.009.042.015.044.017.043.025.04.026.04.031.036.038.036.043.03.049.03.055.024.062.019.068.017,0-.023-.068-.017-.059-.019-.051-.024-.049-.027-.04-.03-.034-.033-.03-.036L76.141,43l-.02-.04-.017-.04-.015-.04-.009-.042-.007-.044-.006-.042,0-.042,0-.042Z" transform="translate(-63.334 -36.19)" fill="#fff" fill-rule="evenodd"/>
        <path id="Path_13356" data-name="Path 13356" d="M76.716,39.755h0l-.066.011-.064.017-.063.021-.061.027-.059.03-.057.038-.051.04-.049.045-.046.047-.04.053-.038.057L76.1,40.2l-.024.064-.017.068-.011.072-.006.074h.026l0-.074.011-.068.017-.064.025-.064.028-.059.034-.053.04-.053L76.262,40l.049-.042.051-.04.053-.034.059-.031.056-.026.063-.021.06-.017.063-.011Z" transform="translate(-63.334 -34.002)" fill="#fff" fill-rule="evenodd"/>
        <path id="Path_13357" data-name="Path 13357" d="M79.152,39.6h-.021l-.027,0-.026,0h-.03l-.032,0-.032,0-.034,0-.033,0-.03,0-.029,0-.026,0-.025,0-.019,0-.015,0-.007,0h0v.023h0l.011,0,.011,0,.019,0,.025,0,.026,0,.029,0,.03,0,.033,0,.034,0,.032,0,.032,0,.03,0,.026,0h.047Z" transform="translate(-65.38 -33.882)" fill="#fff" fill-rule="evenodd"/>
        <path id="Path_13358" data-name="Path 13358" d="M80.581,39.616l.011-.009h-.008l-.017,0-.03,0-.036,0h-.085l-.046,0h-.045v.027h.091l.043,0h.078l.03,0,.017,0h.008l.011-.009-.011.009.009,0,0-.011Z" transform="translate(-66.553 -33.882)" fill="#fff" fill-rule="evenodd"/>
        <path id="Path_13359" data-name="Path 13359" d="M81.37,39.194h0l0,.036-.006.038-.006.034,0,.013.023,0,0-.013.005-.034.005-.041.006-.036H81.37Z" transform="translate(-67.322 -33.581)" fill="#fff" fill-rule="evenodd"/>
        <path id="Path_13360" data-name="Path 13360" d="M80.522,38.369v0l.044,0,.04.011.038.017.032.023.026.026.023.032.015.034.007.04h.023l-.008-.043-.015-.042-.027-.036-.03-.031-.036-.026-.042-.017-.044-.011-.047-.006v.024Z" transform="translate(-66.701 -32.943)" fill="#fff" fill-rule="evenodd"/>
        <path id="Path_13361" data-name="Path 13361" d="M77.267,38.448l.019.011.019-.009.025-.013.032-.011.041-.011.046-.009.049-.01.055-.009.055-.007.059-.008.06-.006.061-.005.062,0h.176l.053,0v-.023l-.053,0-.057,0H77.91l-.061,0-.062,0-.061.006-.06.006-.059.007-.059.007-.055.01-.049.009-.046.009-.042.011-.036.012-.028.013-.022.013.019.011Z" transform="translate(-64.258 -32.931)" fill="#fff" fill-rule="evenodd"/>
        <path id="Path_13362" data-name="Path 13362" d="M77.407,36.939l-.008.01-.132.456.023,0,.133-.457-.008.01-.007-.023-.006,0,0,.008Z" transform="translate(-64.258 -31.889)" fill="#fff" fill-rule="evenodd"/>
        <path id="Path_13363" data-name="Path 13363" d="M78.671,36.574h0l-.064,0-.064,0h-.178l-.055,0-.055,0-.053,0-.051,0-.051.008-.047.007-.047.01-.046.009-.045.013-.043.015-.042.017.007.023.042-.017.043-.015.042-.014.046-.009.047-.01.047-.007.047-.007.051,0,.053,0h.417Z" transform="translate(-64.68 -31.61)" fill="#fff" fill-rule="evenodd"/>
        <path id="Path_13364" data-name="Path 13364" d="M81.856,37.232h0l.009-.078v-.072l-.013-.066-.021-.062L81.8,36.9l-.038-.053-.045-.047-.047-.042-.055-.036-.057-.034-.061-.027-.059-.023-.062-.017-.059-.013-.058-.009-.053,0v.023l.053,0,.055.009.059.013.058.017.059.023.057.027.057.03.051.036.047.042.042.044.038.049.026.056.021.058.013.062v.072l-.009.074Z" transform="translate(-67.214 -31.628)" fill="#fff" fill-rule="evenodd"/>
        <path id="Path_13365" data-name="Path 13365" d="M82.944,40.152h0l.2-1-.023,0-.2,1Z" transform="translate(-68.501 -33.547)" fill="#fff" fill-rule="evenodd"/>
        <path id="Path_13366" data-name="Path 13366" d="M79.119,41.073l0-.011-.007-.009-.013-.006-.019-.005-.021,0-.025,0H79l-.028,0-.03,0-.03,0-.03,0-.029,0-.028.006-.025,0-.025.006-.019,0-.013,0-.015.006-.019.006-.021.007-.025.011-.022.012-.027.013-.024.017-.025.017-.025.021-.02.021-.021.025-.017.026-.013.028-.011.03-.006.032,0,.064.009.051.016.038.022.028.028.019.032.011.032.006.032,0,.057,0,.053-.006.049-.009.044-.013.041-.015.036-.017.034-.019.03-.022.027-.021.022-.024.021-.023.017-.025.013-.022.01-.023.007-.022.005-.021.008-.053.01-.055.007-.053Z" transform="translate(-65.146 -34.964)" fill="#fbb231" fill-rule="evenodd"/>
        <path id="Path_13367" data-name="Path 13367" d="M96.766,43.04l0-.044.014-.051.027-.045.032-.04.04-.032.046-.023.049-.015.053-.005.053.005.049.015.045.023.04.032.032.04.026.045.015.051,0,.044H97.24l0-.034-.012-.042-.019-.038-.025-.032-.03-.026-.036-.019-.042-.013-.044,0-.043,0-.042.013-.036.019-.031.026-.024.032-.019.038-.011.042,0,.034Z" transform="translate(-78.892 -36.276)" fill="#fff" fill-rule="evenodd"/>
        <path id="Path_13368" data-name="Path 13368" d="M97.45,43.468v-.114h.1l.023,0,.021,0,.015.006.013.007.009.011.007.011,0,.013,0,.013,0,.017,0,.013-.005.011,0,0h-.08l.007,0,.013,0,.011,0,.01,0,.007-.006,0-.006,0-.009v-.013l0-.009,0-.008-.005,0-.006,0-.009,0-.009,0H97.5v.074Z" transform="translate(-79.406 -36.703)" fill="#fff" fill-rule="evenodd"/>
        <path id="Path_13369" data-name="Path 13369" d="M96.762,43.81v.011l.006.055.014.051.027.046.032.038.04.032.046.025.049.015.053.006.053-.006.049-.015.045-.025.04-.032.032-.038.026-.046.015-.051.005-.055V43.81h-.057l0,.011,0,.046-.012.042-.019.036-.025.032-.03.027-.036.021-.042.013-.044,0-.043,0-.042-.013L96.906,44l-.031-.027-.024-.032-.019-.036-.011-.042,0-.046V43.81Z" transform="translate(-78.888 -37.046)" fill="#fff" fill-rule="evenodd"/>
        <path id="Path_13370" data-name="Path 13370" d="M97.45,43.81v.115H97.5v-.095h.047l.057.095h.038l-.057-.095H97.6l.013,0,.011,0,.01-.007,0-.005h-.08l-.009,0H97.5v0Z" transform="translate(-79.406 -37.046)" fill="#fff" fill-rule="evenodd"/>
        <path id="Path_13371" data-name="Path 13371" d="M96.761,43.051h0L96.767,43l.014-.051.027-.045.032-.04.04-.032.046-.023.049-.015.053-.005.053.005.049.015.046.023.04.032.032.04.026.045.015.051.005.055-.005.055-.015.051-.026.046-.032.038-.04.032-.046.025-.049.015-.053.006-.053-.006-.049-.015-.046-.025-.04-.032-.032-.038-.027-.046-.014-.051-.006-.055m.22.1h-.047v-.229h.1l.023,0,.021,0,.015.006.013.007.009.011.007.011,0,.013,0,.013,0,.017,0,.013-.006.011-.007.009-.009.007-.011,0-.013,0h-.013l.057.095h-.038l-.057-.095h-.047v.095m.047-.114h0l.017,0,.013,0,.011,0,.009,0,.008-.006,0-.006,0-.009v-.013l0-.009,0-.008-.005,0-.006,0-.01,0-.009,0h-.078v.076h.047m0,.229h0l.044,0,.042-.013.036-.02.03-.027.025-.032.019-.036.012-.042,0-.045,0-.045-.012-.042-.019-.038-.025-.032-.03-.026-.036-.019-.042-.013-.044,0-.043,0-.041.013-.036.019-.03.026-.025.032-.019.038-.011.042,0,.045,0,.045.011.042.019.036.025.032.03.027.036.02.041.013.043,0" transform="translate(-78.889 -36.276)" fill="none" stroke="#fff" stroke-miterlimit="2.613" stroke-width="0.216"/>
        <path id="Path_13372" data-name="Path 13372" d="M83.538,38.684h.534l.191-1.077.007-.041.011-.042.011-.042.015-.042.019-.041.022-.04.025-.038.03-.036.034-.032.038-.03.044-.029.049-.022.055-.019.061-.015.066-.011.074,0h.047l.085-.486-.053,0-.051.006-.047.009-.046.013-.042.015-.04.019-.038.02-.036.023-.034.027-.032.026-.03.03-.03.03-.029.032-.028.036-.028.034L84.367,37l.057-.343h-.532Z" transform="translate(-68.964 -31.661)" fill="#fff" fill-rule="evenodd"/>
        <path id="Path_13373" data-name="Path 13373" d="M83.538,38.684h.534l.191-1.077.007-.041.011-.042.011-.042.015-.042.019-.041.022-.04.025-.038.03-.036.034-.032.038-.03.044-.029.049-.022.055-.019.061-.015.066-.011.074,0h.047l.085-.486-.053,0-.051.006-.047.009-.046.013-.042.015-.04.019-.038.02-.036.023-.034.027-.032.026-.03.03-.03.03-.029.032-.028.036-.028.034L84.367,37l.057-.343h-.532l-.354,2.028" transform="translate(-68.964 -31.661)" fill="none" stroke="#fff" stroke-miterlimit="2.613" stroke-width="0.216"/>
        <path id="Path_13374" data-name="Path 13374" d="M63.437,38.684h.543l.182-1.077.008-.041.009-.04.009-.04.013-.038.015-.038.019-.036.023-.034.026-.032.03-.029.034-.028.042-.023.045-.021.053-.017.059-.015.064-.01.074-.005h.006l.007,0,.009,0h.009l.009,0,.008,0,.005,0h0l0-.008.006-.023.007-.034.009-.042.013-.049.013-.053.017-.053.017-.053.015-.036.019-.036.019-.036.019-.032.017-.028.013-.023.009-.013,0-.005h0l-.008,0-.009,0-.013,0H64.9l-.015,0-.013,0h-.013l-.059,0-.053.006-.049.009-.045.011-.044.015-.04.019-.036.019-.034.022-.032.025-.03.028-.028.028-.028.032-.029.032-.026.036-.028.037L64.266,37l.068-.343h-.543Z" transform="translate(-53.878 -31.661)" fill="#fff" fill-rule="evenodd"/>
        <path id="Path_13375" data-name="Path 13375" d="M63.437,38.684h.543l.182-1.077.008-.041.009-.04.009-.04.013-.038.015-.038.019-.036.023-.034.026-.032.03-.029.034-.028.042-.023.045-.021.053-.017.059-.015.064-.01.074-.005h.006l.007,0,.009,0h.009l.009,0,.008,0,.005,0h0l0-.008.006-.023.007-.034.009-.042.013-.049.013-.053.017-.053.017-.053.015-.036.019-.036.019-.036.019-.032.017-.028.013-.023.009-.013,0-.005h0l-.008,0-.009,0-.013,0H64.9l-.015,0-.013,0h-.013l-.059,0-.053.006-.049.009-.045.011-.044.015-.04.019-.036.019-.034.022-.032.025-.03.028-.028.028-.028.032-.029.032-.026.036-.028.037L64.266,37l.068-.343h-.543l-.354,2.028" transform="translate(-53.878 -31.661)" fill="none" stroke="#fff" stroke-miterlimit="2.613" stroke-width="0.216"/>
        <path id="Path_13376" data-name="Path 13376" d="M96.784,52.2v-.008l.014-.049.027-.043.032-.038.04-.03.046-.023L96.992,52l.053-.006L97.1,52l.049.013.046.023.04.03.032.038.026.043.015.049V52.2h-.055l-.011-.039-.019-.036-.025-.032-.03-.026-.036-.021-.042-.013-.044,0-.043,0-.042.013-.036.021-.031.026-.024.032-.019.036-.011.039Z" transform="translate(-78.905 -43.186)" fill="#fbb231" fill-rule="evenodd"/>
        <path id="Path_13377" data-name="Path 13377" d="M97.45,52.636v-.066h.127l.021,0,.015,0,.013.007.009.01.007.011,0,.013,0,.017h-.038v-.009l0-.009,0-.008-.005,0-.006,0-.009,0H97.5v.038Z" transform="translate(-79.406 -43.62)" fill="#fbb231" fill-rule="evenodd"/>
        <path id="Path_13378" data-name="Path 13378" d="M96.76,52.876l.006-.041h.055l0,.04Z" transform="translate(-78.888 -43.819)" fill="#fbb231" fill-rule="evenodd"/>
        <path id="Path_13379" data-name="Path 13379" d="M97.45,52.876v-.041H97.5v.038h.047l.017,0,.013,0,.011,0,.01,0,.007-.005,0-.006,0-.009v0h.038l0,.013,0,.011-.005.01-.007.007Z" transform="translate(-79.406 -43.819)" fill="#fbb231" fill-rule="evenodd"/>
        <path id="Path_13380" data-name="Path 13380" d="M98.662,52.876l0-.04h.055l.005.041Z" transform="translate(-80.312 -43.819)" fill="#fbb231" fill-rule="evenodd"/>
        <path id="Path_13381" data-name="Path 13381" d="M96.76,53v.006l.006.055.015.051.027.045.032.04.04.032.046.022.049.015.053.005.053-.005.049-.015.045-.022.04-.032.032-.04.026-.045.015-.051.005-.055V53h-.056v.006l0,.046-.012.041-.019.036-.024.032-.03.027-.036.021-.042.013-.044,0-.043,0-.042-.013-.036-.021-.031-.027-.024-.032-.019-.036-.011-.041,0-.046V53Z" transform="translate(-78.888 -43.944)" fill="#fbb231" fill-rule="evenodd"/>
        <path id="Path_13382" data-name="Path 13382" d="M97.45,53v.11H97.5v-.095h.047l.057.095h.038l-.057-.095H97.6l.013,0,.011,0L97.63,53Z" transform="translate(-79.406 -43.944)" fill="#fbb231" fill-rule="evenodd"/>
        <path id="Path_13383" data-name="Path 13383" d="M58.168,37.2l-.015-.113-.027-.1-.038-.087-.048-.076-.057-.065-.062-.053-.068-.045-.074-.034L57.7,36.6l-.078-.019-.078-.013-.078-.007-.074,0-.154.008-.136.023-.123.034-.11.047-.095.057-.084.064-.074.072-.06.076-.053.079-.043.083-.034.082-.028.081-.021.08-.015.074-.011.07-.008.061-.009.155.006.14.021.127.032.112.046.1.055.087.064.078.074.064.08.055.086.047.089.036.093.028.095.023.1.013.094.009.093,0h.062l.059,0h.051l.049,0,.044,0,.04,0,.038,0,.034-.006.032-.006.03-.007.031-.009.028-.009.028-.012.03-.011.03-.015.031-.015.076-.466L58,38.087l-.053.03-.055.023-.053.021-.051.017-.053.011-.051.01-.051.007-.051,0-.049,0h-.051l-.049,0-.049,0-.049-.005-.047-.006-.049-.007L57.2,38.18l-.038-.013-.038-.017-.034-.021-.034-.023-.031-.028-.028-.029-.027-.032-.022-.032-.021-.036-.015-.034-.013-.036-.007-.036,0-.036v-.032l0-.025h1.228l.009-.116.028-.159.013-.144Zm-.513.174h-.692l0-.026.008-.04.011-.038L57,37.233l.017-.034.017-.032.02-.03.023-.028.025-.026.024-.022.029-.021.028-.017.032-.015.032-.011.032-.008.034-.006.036,0,.034,0,.032.006.03.008.03.011.028.015.028.017.025.019.022.022.019.026.019.028.013.032.013.036.007.037,0,.042,0,.045Z" transform="translate(-48.551 -31.604)" fill="#fff" fill-rule="evenodd"/>
      </g>
    </g>
    <g id="Group_14545" data-name="Group 14545" transform="translate(169.14 1307.765)">
      <g id="Group_14538" data-name="Group 14538" transform="translate(0 0)">
        <rect id="Rectangle_3592" data-name="Rectangle 3592" width="32" height="19" rx="1" transform="translate(-0.141 0.236)" fill="#f9f9f9"/>
        <path id="Path_13384" data-name="Path 13384" d="M34.479,53.226H56.126c.891,0,1.043-.373,1.043-1.043V44.86c-2.078,1.317-9.91,5.858-22.69,8.366" transform="translate(-25.969 -34.086)" fill="#f58220"/>
      </g>
      <g id="Group_14537" data-name="Group 14537" transform="translate(4.176 7.67)">
        <g id="Group_14531" data-name="Group 14531" transform="translate(9.506 0)">
          <g id="Group_14530" data-name="Group 14530" clip-path="url(#clip-path)">
            <rect id="Rectangle_3586" data-name="Rectangle 3586" width="3.91" height="3.822" transform="translate(0 0)" fill="url(#radial-gradient)"/>
          </g>
        </g>
        <path id="Path_13386" data-name="Path 13386" d="M26.34,33.311h-.992v3.46h.987a1.807,1.807,0,0,0,1.234-.4,1.742,1.742,0,0,0,.628-1.329,1.719,1.719,0,0,0-1.857-1.732m.789,2.6a1.279,1.279,0,0,1-.924.275h-.182V33.9H26.2a1.253,1.253,0,0,1,.924.28,1.162,1.162,0,0,1,.372.861,1.184,1.184,0,0,1-.372.872" transform="translate(-25.348 -33.137)" fill="#001722"/>
        <rect id="Rectangle_3587" data-name="Rectangle 3587" width="0.674" height="3.46" transform="translate(3.16 0.175)" fill="#001722"/>
        <path id="Path_13387" data-name="Path 13387" d="M40.616,34.5c-.405-.15-.524-.249-.524-.435,0-.218.211-.383.5-.383a.7.7,0,0,1,.545.279l.353-.461a1.512,1.512,0,0,0-1.017-.384,1.016,1.016,0,0,0-1.079.991c0,.478.218.721.851.949a2.632,2.632,0,0,1,.467.2.414.414,0,0,1,.2.358.493.493,0,0,1-.525.488.8.8,0,0,1-.736-.461l-.435.421a1.345,1.345,0,0,0,1.2.659,1.117,1.117,0,0,0,1.193-1.137c0-.55-.228-.8-1-1.08" transform="translate(-35.131 -32.999)" fill="#001722"/>
        <path id="Path_13388" data-name="Path 13388" d="M48.054,34.857a1.792,1.792,0,0,0,1.826,1.806,1.855,1.855,0,0,0,.846-.2v-.794a1.08,1.08,0,0,1-.815.378,1.131,1.131,0,0,1-1.162-1.194,1.15,1.15,0,0,1,1.131-1.188,1.132,1.132,0,0,1,.846.389v-.794a1.722,1.722,0,0,0-.83-.212,1.819,1.819,0,0,0-1.842,1.81" transform="translate(-41.36 -32.951)" fill="#001722"/>
        <path id="Path_13389" data-name="Path 13389" d="M71.7,35.635l-.924-2.324h-.737l1.469,3.549h.363l1.495-3.549h-.731Z" transform="translate(-56.863 -33.136)" fill="#001722"/>
        <path id="Path_13390" data-name="Path 13390" d="M82.361,36.771h1.914v-.586h-1.24v-.934h1.193v-.586H83.035V33.9h1.24v-.586H82.361Z" transform="translate(-65.555 -33.137)" fill="#001722"/>
        <path id="Path_13391" data-name="Path 13391" d="M92.592,34.332c0-.649-.446-1.021-1.224-1.021h-1v3.46h.675v-1.39h.088l.934,1.39h.83L91.8,35.313a.921.921,0,0,0,.789-.981m-1.354.571h-.2V33.855h.207c.421,0,.649.177.649.514s-.228.535-.66.535" transform="translate(-71.2 -33.137)" fill="#001722"/>
        <path id="Path_13392" data-name="Path 13392" d="M99.022,33.961c0-.06-.041-.094-.115-.094h-.1v.305h.072v-.118l.085.118h.091l-.1-.126a.084.084,0,0,0,.067-.085M98.895,34h-.014v-.079H98.9c.036,0,.054.013.054.039s-.019.04-.055.04" transform="translate(-77.154 -33.528)" fill="#231f20"/>
        <path id="Path_13393" data-name="Path 13393" d="M98.555,33.478a.266.266,0,1,0,.263.267.265.265,0,0,0-.263-.267m0,.485a.218.218,0,1,1,.21-.218.215.215,0,0,1-.21.218" transform="translate(-76.788 -33.254)" fill="#231f20"/>
      </g>
    </g>
    <g id="Group_14544" data-name="Group 14544" transform="translate(133.093 1307.765)">
      <rect id="Rectangle_3593" data-name="Rectangle 3593" width="32" height="19" rx="1" transform="translate(-0.094 0.236)" fill="#f7f8f9"/>
      <g id="Group_14539" data-name="Group 14539" transform="translate(2.92 4.984)">
        <path id="Path_13394" data-name="Path 13394" d="M19.784,24.955v-.313l-.15.313h-1.3l-.162-.336v.336H15.755l-.286-.677h-.485l-.3.677H13.424V22.911l.921-2.083h1.762l.247.59v-.586H18.51l.474.993.463-1h6.8a1.159,1.159,0,0,1,.591.16v-.16h1.714v.226a1.394,1.394,0,0,1,.764-.226h3.025l.266.6v-.6h1.938l.352.6v-.6h1.853v4.131h-1.9l-.447-.72v.716H32.036l-.333-.738H31.24l-.313.738H29.5a1.852,1.852,0,0,1-.935-.293v.293H25.71v-.964c0-.14-.108-.13-.108-.13h-.1v1.094Z" transform="translate(-13.424 -20.828)" fill="#fff"/>
        <path id="Path_13395" data-name="Path 13395" d="M33.216,40.957h3.746l.54.612.553-.612h2.88a1.325,1.325,0,0,1,.528.144v-.144h2.565a1.311,1.311,0,0,1,.6.163v-.163h3.3v.15a1.115,1.115,0,0,1,.55-.15h2.148v.15a1.31,1.31,0,0,1,.556-.15h1.686V44.85a.928.928,0,0,1-.68.251H49.961v-.124a1.141,1.141,0,0,1-.534.124H43.521V44.094c0-.1-.043-.117-.131-.117h-.081V45.1H41.463V43.984a1.245,1.245,0,0,1-.547.11h-.664V45.1H37.978l-.518-.631-.553.631H33.216Z" transform="translate(-28.279 -35.936)" fill="#fff"/>
        <path id="Path_13396" data-name="Path 13396" d="M80.542,43.447h2.351v.63H81.262v.55h1.585v.556H81.262v.578h1.631v.615H80.542Z" transform="translate(-63.799 -37.805)" fill="#0078a9"/>
        <path id="Path_13397" data-name="Path 13397" d="M103.516,44.609c.884.045.957.487.957.957a.856.856,0,0,1-.922.843h-1.511v-.628h1.177c.2,0,.5,0,.5-.281,0-.133-.052-.219-.265-.241-.094-.013-.444-.033-.5-.034-.8-.021-.984-.418-.984-.9a.807.807,0,0,1,.857-.849h1.511V44.1h-1.106c-.251,0-.522-.03-.522.254,0,.18.133.216.3.233.059,0,.451.02.5.02" transform="translate(-79.88 -37.826)" fill="#0078a9"/>
        <path id="Path_13398" data-name="Path 13398" d="M92.666,44.609c.884.045.958.487.958.957a.856.856,0,0,1-.922.843h-1.51v-.628h1.177c.2,0,.5,0,.5-.281,0-.133-.052-.219-.265-.241-.095-.013-.445-.033-.5-.034-.8-.021-.984-.418-.984-.9a.807.807,0,0,1,.856-.849h1.51V44.1h-1.1c-.252,0-.523-.03-.523.254,0,.18.134.216.3.233.059,0,.451.02.5.02" transform="translate(-71.738 -37.826)" fill="#0078a9"/>
        <path id="Path_13399" data-name="Path 13399" d="M42.144,43.454H39.62l-.824.909-.8-.915H35.165v2.929h2.743l.863-.968.843.974h1.38v-.994h.967c.373,0,1.053-.013,1.053-1.039a.811.811,0,0,0-.87-.9m-4.612,2.308H35.874v-.578H37.46v-.556H35.874v-.55l1.749,0,.7.8Zm2.749.34-1.033-1.222,1.033-1.144ZM41.9,44.786h-.9v-.7h.9a.354.354,0,1,1,0,.7" transform="translate(-29.742 -37.805)" fill="#0078a9"/>
        <path id="Path_13400" data-name="Path 13400" d="M70.338,45.069a.8.8,0,0,0,.5-.811.773.773,0,0,0-.863-.784H68.1V46.4h.719V45.369h.941c.248,0,.346.248.353.5l.02.536h.7l-.026-.6c0-.471-.13-.693-.471-.732m-.621-.3h-.9V44.1h.9a.345.345,0,0,1,.4.337c0,.2-.1.327-.4.327" transform="translate(-54.462 -37.825)" fill="#0078a9"/>
        <rect id="Rectangle_3590" data-name="Rectangle 3590" width="0.719" height="2.932" transform="translate(13.928 0.587)" fill="#0078a9"/>
        <path id="Path_13401" data-name="Path 13401" d="M45.662,23.193h2.35v.63H46.381v.55h1.585v.556H46.381v.578h1.631v.615h-2.35Z" transform="translate(-37.62 -22.603)" fill="#0078a9"/>
        <path id="Path_13402" data-name="Path 13402" d="M59.03,24.788a.8.8,0,0,0,.5-.811.773.773,0,0,0-.863-.784h-1.87v2.929h.719V25.089h.941c.249,0,.347.248.353.5l.02.536h.7l-.026-.6c0-.47-.131-.693-.471-.732m-.621-.3h-.9v-.664h.9a.345.345,0,0,1,.4.337c0,.2-.1.327-.4.327" transform="translate(-45.975 -22.603)" fill="#0078a9"/>
        <path id="Path_13403" data-name="Path 13403" d="M19.827,23.193l-.882,1.965-.879-1.965H16.937v2.821l-1.255-2.821h-.951l-1.282,2.929h.759l.281-.654h1.435l.285.654h1.448V23.948l.961,2.174h.654l.984-2.138v2.138h.719V23.193ZM14.76,24.836l.429-1.024.447,1.024Z" transform="translate(-13.443 -22.603)" fill="#0078a9"/>
        <path id="Path_13404" data-name="Path 13404" d="M80.653,23.187v2.028L79.44,23.187H78.377v2.751l-1.225-2.749H76.2l-.99,2.269s-.419,0-.461-.01c-.174-.036-.444-.158-.448-.674V24.56c0-.687.373-.737.851-.737H75.6v-.636h-.939c-.327,0-1.038.249-1.062,1.453-.016.811.337,1.479,1.134,1.479h.948l.281-.654h1.435l.284.654H79.1V23.974l1.294,2.145h.981V23.187Zm-4.417,1.646.428-1.024.451,1.024Z" transform="translate(-58.584 -22.599)" fill="#0078a9"/>
      </g>
    </g>
    <g id="Group_14547" data-name="Group 14547" transform="translate(240 1308.001)">
      <path id="Base_1_" d="M196.95,170H180.211a9.628,9.628,0,0,0-9.511,9.685h0a9.628,9.628,0,0,0,9.511,9.685H196.95a9.628,9.628,0,0,0,9.511-9.685h0A9.628,9.628,0,0,0,196.95,170Z" transform="translate(-170.7 -170)" fill="#fff"/>
      <path id="Outline" d="M196.95,170.784a8.495,8.495,0,0,1,3.391.7,8.81,8.81,0,0,1,2.782,1.913,8.974,8.974,0,0,1,0,12.572,8.756,8.756,0,0,1-2.782,1.913,8.494,8.494,0,0,1-3.391.7H180.211a8.494,8.494,0,0,1-3.391-.7,8.809,8.809,0,0,1-2.782-1.913,8.974,8.974,0,0,1,0-12.572,8.757,8.757,0,0,1,2.782-1.913,8.5,8.5,0,0,1,3.391-.7H196.95m0-.784H180.211a9.628,9.628,0,0,0-9.511,9.685h0a9.628,9.628,0,0,0,9.511,9.685H196.95a9.628,9.628,0,0,0,9.511-9.685h0A9.628,9.628,0,0,0,196.95,170Z" transform="translate(-170.7 -170)" fill="#3c4043"/>
      <g id="G_Pay_Lockup_1_" transform="translate(5.215 5.215)">
        <g id="Pay_Typeface_3_" transform="translate(10.869 0.527)">
          <path id="Letter_p_3_" d="M511.028,299.6v2.924H510.1V295.3h2.46a2.218,2.218,0,0,1,1.59.623,2.082,2.082,0,0,1,0,3.054,2.215,2.215,0,0,1-1.59.614h-1.532Zm0-3.407v2.518h1.551a1.239,1.239,0,0,0,.918-.372,1.217,1.217,0,0,0,.372-.884,1.288,1.288,0,0,0-1.29-1.257h-1.551Z" transform="translate(-510.1 -295.3)" fill="#3c4043"/>
          <path id="Letter_a_3_" d="M615.455,339.1a2.3,2.3,0,0,1,1.624.551,1.955,1.955,0,0,1,.594,1.508V344.2h-.884v-.686h-.039a1.765,1.765,0,0,1-1.532.846,1.989,1.989,0,0,1-1.368-.483,1.544,1.544,0,0,1-.551-1.208,1.46,1.46,0,0,1,.58-1.218,2.433,2.433,0,0,1,1.547-.454,2.7,2.7,0,0,1,1.358.3v-.213a1.053,1.053,0,0,0-.382-.822,1.31,1.31,0,0,0-.9-.338,1.41,1.41,0,0,0-1.228.657l-.817-.512A2.266,2.266,0,0,1,615.455,339.1Zm-1.2,3.586a.732.732,0,0,0,.309.6,1.136,1.136,0,0,0,.72.242,1.471,1.471,0,0,0,1.044-.435,1.365,1.365,0,0,0,.459-1.02,1.912,1.912,0,0,0-1.208-.343,1.586,1.586,0,0,0-.942.271A.826.826,0,0,0,614.257,342.686Z" transform="translate(-608.313 -336.983)" fill="#3c4043"/>
          <path id="Letter_y_3_" d="M710.939,342.4l-3.093,7.114h-.957l1.15-2.489L706,342.4h1.01l1.469,3.547h.019l1.43-3.547Z" transform="translate(-696.533 -340.124)" fill="#3c4043"/>
        </g>
        <g id="G_Mark_1_" transform="translate(0 0)">
          <path id="Blue_500" d="M374.817,354.86a4.882,4.882,0,0,0-.077-.87H370.85v1.595h2.24a1.919,1.919,0,0,1-.831,1.285V357.9h1.333A4.053,4.053,0,0,0,374.817,354.86Z" transform="translate(-366.711 -350.627)" fill="#4285f4"/>
          <path id="Green_500_1_" d="M299.418,387.742a2.509,2.509,0,0,1-3.733-1.312H294.31V387.5a4.14,4.14,0,0,0,3.7,2.28,3.949,3.949,0,0,0,2.742-1Z" transform="translate(-293.87 -381.499)" fill="#34a853"/>
          <path id="Yellow_500_1_" d="M286.886,333.439a2.5,2.5,0,0,1,.13-.792V331.58H285.64a4.145,4.145,0,0,0,0,3.718l1.375-1.067A2.5,2.5,0,0,1,286.886,333.439Z" transform="translate(-285.2 -329.3)" fill="#fabb05"/>
          <path id="Red_500" d="M298.01,286.038a2.25,2.25,0,0,1,1.588.621l1.182-1.181a3.977,3.977,0,0,0-2.77-1.079,4.141,4.141,0,0,0-3.7,2.28l1.375,1.067A2.477,2.477,0,0,1,298.01,286.038Z" transform="translate(-293.87 -284.4)" fill="#e94235"/>
        </g>
      </g>
    </g>
    <g id="Group_14546" data-name="Group 14546" transform="translate(205 1308.001)">
      <path id="XMLID_4_" d="M28.489,0H2.481c-.09,0-.18,0-.27,0a4.06,4.06,0,0,0-.588.05,2.035,2.035,0,0,0-.559.178A1.876,1.876,0,0,0,.587.568a1.817,1.817,0,0,0-.346.461,1.869,1.869,0,0,0-.184.541A3.653,3.653,0,0,0,0,2.138c0,.087,0,.174,0,.261,0,.1,0,.207,0,.311V16.661c0,.1,0,.207,0,.311,0,.087,0,.174,0,.261a3.651,3.651,0,0,0,.052.569,1.869,1.869,0,0,0,.184.541,1.813,1.813,0,0,0,.346.461,1.866,1.866,0,0,0,.476.335,2.027,2.027,0,0,0,.559.179,4.091,4.091,0,0,0,.588.05l.27,0H28.81l.271,0a4.1,4.1,0,0,0,.589-.05,2.028,2.028,0,0,0,.559-.179A1.867,1.867,0,0,0,30.7,18.8a1.824,1.824,0,0,0,.346-.461,1.857,1.857,0,0,0,.184-.541,3.65,3.65,0,0,0,.052-.569c0-.087,0-.174,0-.261,0-.1,0-.207,0-.311V2.71c0-.1,0-.207,0-.311,0-.087,0-.174,0-.261a3.652,3.652,0,0,0-.052-.569,1.858,1.858,0,0,0-.184-.541A1.827,1.827,0,0,0,30.7.568a1.878,1.878,0,0,0-.476-.335,2.036,2.036,0,0,0-.559-.178A4.071,4.071,0,0,0,29.08,0c-.09,0-.181,0-.271,0Z" transform="translate(0)"/>
      <path id="XMLID_3_" d="M31.21,3.532h.314c.085,0,.17,0,.256,0a3.451,3.451,0,0,1,.486.04,1.348,1.348,0,0,1,.373.117,1.2,1.2,0,0,1,.3.213,1.166,1.166,0,0,1,.223.295,1.21,1.21,0,0,1,.121.358,3.055,3.055,0,0,1,.041.466c0,.081,0,.163,0,.246,0,.1,0,.2,0,.3v13.8c0,.1,0,.2,0,.3,0,.081,0,.163,0,.244a3.052,3.052,0,0,1-.041.468,1.206,1.206,0,0,1-.121.357,1.16,1.16,0,0,1-.222.294,1.2,1.2,0,0,1-.306.214,1.337,1.337,0,0,1-.371.117,3.511,3.511,0,0,1-.484.04l-.259,0H5.339l-.254,0a3.517,3.517,0,0,1-.486-.04,1.342,1.342,0,0,1-.373-.118,1.191,1.191,0,0,1-.305-.213,1.152,1.152,0,0,1-.222-.293,1.22,1.22,0,0,1-.122-.359,3.04,3.04,0,0,1-.041-.466c0-.082,0-.164,0-.245V5.271c0-.082,0-.164,0-.245a3.042,3.042,0,0,1,.042-.468A1.218,1.218,0,0,1,3.7,4.2a1.155,1.155,0,0,1,.222-.293,1.2,1.2,0,0,1,.306-.213A1.346,1.346,0,0,1,4.6,3.576a3.447,3.447,0,0,1,.486-.04l.255,0H31.21" transform="translate(-2.787 -2.787)" fill="#fff"/>
      <g id="Group_14471" data-name="Group 14471" transform="translate(4.47 5.215)">
        <g id="Group_14469" data-name="Group 14469">
          <path id="Path_13304" data-name="Path 13304" d="M40.14,30.257a1.685,1.685,0,0,0,.388-1.2,1.671,1.671,0,0,0-1.108.573,1.578,1.578,0,0,0-.4,1.155,1.394,1.394,0,0,0,1.117-.527" transform="translate(-35.989 -29.055)"/>
          <path id="Path_13305" data-name="Path 13305" d="M26.969,38.971c-.617-.037-1.142.35-1.436.35S24.786,38.99,24.3,39a1.819,1.819,0,0,0-1.547.94,3.879,3.879,0,0,0,.47,3.768c.313.46.69.967,1.188.949.47-.018.654-.3,1.225-.3s.736.3,1.234.295c.516-.009.838-.461,1.151-.921a4.09,4.09,0,0,0,.515-1.059,1.673,1.673,0,0,1-1-1.52,1.706,1.706,0,0,1,.81-1.428,1.764,1.764,0,0,0-1.372-.746" transform="translate(-22.435 -37.161)"/>
        </g>
        <g id="Group_14470" data-name="Group 14470" transform="translate(7.314 0.527)">
          <path id="Path_13306" data-name="Path 13306" d="M65.121,31.944a2.168,2.168,0,0,1,2.275,2.27,2.193,2.193,0,0,1-2.308,2.28H63.6v2.361H62.53V31.944ZM63.6,35.593h1.231a1.375,1.375,0,1,0,0-2.744H63.6Z" transform="translate(-62.53 -31.944)"/>
          <path id="Path_13307" data-name="Path 13307" d="M90.74,45.408c0-.881.675-1.422,1.873-1.49l1.379-.081v-.388c0-.56-.378-.9-1.01-.9a.965.965,0,0,0-1.063.738h-.977c.057-.91.833-1.581,2.079-1.581,1.221,0,2,.647,2,1.657V46.84H94.03v-.829h-.024a1.8,1.8,0,0,1-1.59.915A1.527,1.527,0,0,1,90.74,45.408Zm3.252-.455v-.4l-1.241.077c-.618.043-.967.316-.967.747s.364.728.92.728A1.208,1.208,0,0,0,93.992,44.953Z" transform="translate(-85.594 -39.929)"/>
          <path id="Path_13308" data-name="Path 13308" d="M117.109,49.1v-.838a1.915,1.915,0,0,0,.335.019.839.839,0,0,0,.9-.718c0-.01.091-.307.091-.311l-1.82-5.043h1.121l1.274,4.1h.019l1.274-4.1h1.092l-1.887,5.3c-.431,1.221-.929,1.614-1.973,1.614A4,4,0,0,1,117.109,49.1Z" transform="translate(-106.745 -40.336)"/>
        </g>
      </g>
    </g>
  </g>
</svg>
