<svg width="23" height="28" viewBox="0 0 23 28" fill="none" xmlns="http://www.w3.org/2000/svg">
<g clip-path="url(#clip0_6659_6839)">
<path d="M7.69423 17.6366L8.96317 17.3446C8.98986 17.3385 9.03395 17.3285 9.0878 17.3112C9.43792 17.2173 9.73796 16.992 9.92471 16.6822C10.1115 16.3726 10.1704 16.0029 10.089 15.6511C10.0873 15.6433 10.0856 15.636 10.0838 15.6283C10.0421 15.4597 9.96908 15.3003 9.86851 15.1585C9.7263 14.9788 9.55032 14.8286 9.35041 14.7161C9.11508 14.5825 8.86878 14.4688 8.61416 14.3766L7.22283 13.871C6.44203 13.5821 5.66128 13.3003 4.87318 13.0255C4.36211 12.8445 3.92909 12.6856 3.55283 12.5697C3.48181 12.5479 3.40347 12.5261 3.33976 12.5042C2.88489 12.3654 2.56529 12.3079 2.29482 12.306C2.11417 12.2994 1.93422 12.3321 1.76747 12.4017C1.59371 12.4764 1.43764 12.5866 1.30949 12.7254C1.24575 12.7976 1.18582 12.873 1.12994 12.9512C1.0775 13.0311 1.02942 13.1136 0.985887 13.1986C0.937954 13.2899 0.896761 13.3843 0.862639 13.4814C0.604409 14.2414 0.47578 15.0389 0.482094 15.8411C0.486749 16.5662 0.506313 17.4969 0.90668 18.1279C1.00316 18.2898 1.13262 18.4298 1.28673 18.5388C1.57196 18.7348 1.86018 18.7607 2.16004 18.7822C2.60816 18.8142 3.04228 18.7046 3.47507 18.605L7.6907 17.6353L7.69423 17.6366Z" fill="#FF1A1A"/>
<path d="M21.8512 10.9293C21.5047 10.2054 21.039 9.54458 20.4732 8.97418C20.4001 8.90176 20.3217 8.83476 20.2387 8.77372C20.1621 8.71649 20.0825 8.66329 20.0002 8.61435C19.9157 8.56819 19.8287 8.52658 19.7397 8.48966C19.5637 8.4209 19.3751 8.3899 19.1864 8.39867C19.0057 8.4089 18.8295 8.45816 18.6699 8.54304C18.4279 8.6628 18.166 8.85531 17.8177 9.17764C17.7696 9.22522 17.7091 9.2789 17.6549 9.32953C17.3675 9.59849 17.0479 9.93007 16.6675 10.3162C16.0799 10.9074 15.5011 11.5018 14.926 12.1028L13.897 13.1651C13.7086 13.3593 13.537 13.5689 13.3841 13.7919C13.2539 13.9804 13.1616 14.1923 13.1127 14.4159C13.0845 14.5873 13.0886 14.7625 13.125 14.9324C13.1267 14.9401 13.1285 14.9474 13.1302 14.9551C13.2116 15.3071 13.4267 15.6137 13.7306 15.8104C14.0344 16.0073 14.403 16.079 14.759 16.0103C14.8154 16.0022 14.8591 15.9925 14.8857 15.986L20.3722 14.724C20.8046 14.6245 21.2434 14.5334 21.6319 14.3089C21.8924 14.1584 22.1402 14.0093 22.3102 13.7086C22.401 13.5433 22.456 13.3609 22.4716 13.1732C22.5557 12.4288 22.1654 11.5834 21.8512 10.9293Z" fill="#FF1A1A"/>
<path d="M12.0315 13.2263C12.4291 12.729 12.4281 11.9879 12.4637 11.382C12.5834 9.3575 12.7094 7.33274 12.8092 5.30713C12.8474 4.53989 12.9304 3.78305 12.8845 3.00997C12.8467 2.37222 12.8421 1.63999 12.4376 1.11661C11.7237 0.193681 10.2013 0.269535 9.16258 0.412698C8.8444 0.456669 8.52563 0.515789 8.20946 0.591358C7.89327 0.666928 7.58032 0.749462 7.27413 0.847084C6.27742 1.17212 4.8762 1.76875 4.63892 2.91211C4.50516 3.55849 4.82212 4.21968 5.06802 4.80956C5.36607 5.52462 5.77318 6.16873 6.14423 6.84184C7.12521 8.61884 8.12439 10.3848 9.12075 12.1525C9.41827 12.6803 9.74261 13.3486 10.3183 13.622C10.3563 13.6386 10.3952 13.6533 10.4347 13.6659C10.6929 13.7632 10.9742 13.782 11.2432 13.7197C11.2594 13.716 11.2753 13.7124 11.2912 13.7087C11.5395 13.6415 11.7644 13.5071 11.9408 13.3203C11.9727 13.2905 12.0029 13.2592 12.0315 13.2263Z" fill="#FF1A1A"/>
<path d="M11.5555 18.6462C11.4003 18.4289 11.1801 18.266 10.9263 18.1809C10.6725 18.0958 10.3982 18.0927 10.1425 18.1723C10.0824 18.1921 10.0239 18.2164 9.96733 18.2446C9.87988 18.2889 9.79644 18.3407 9.71794 18.3994C9.48929 18.5681 9.29674 18.7872 9.12142 19.007C9.07695 19.063 9.03636 19.1376 8.98346 19.1855L8.10096 20.3941C7.60076 21.0711 7.10746 21.7498 6.6183 22.4394C6.29914 22.8845 6.02306 23.2605 5.80499 23.5931C5.76366 23.6557 5.72075 23.7257 5.68149 23.7814C5.42013 24.184 5.2721 24.4778 5.19613 24.7395C5.13906 24.9135 5.121 25.0977 5.14323 25.2792C5.16751 25.4684 5.23147 25.6502 5.33095 25.8131C5.38384 25.8947 5.44084 25.9737 5.50174 26.0497C5.56503 26.1228 5.63224 26.1924 5.70308 26.2582C5.77874 26.33 5.85965 26.3962 5.94516 26.4562C6.55429 26.8781 7.22111 27.1812 7.92254 27.4154C8.50623 27.6083 9.11294 27.7238 9.72701 27.7588C9.83148 27.7641 9.93619 27.7618 10.0403 27.7521C10.1369 27.7437 10.2329 27.7303 10.328 27.7119C10.4231 27.6898 10.5169 27.6626 10.609 27.6306C10.7884 27.5638 10.9517 27.4604 11.0884 27.3268C11.2178 27.1978 11.3173 27.0422 11.3802 26.8709C11.4822 26.6177 11.5493 26.2963 11.5934 25.8192C11.5973 25.7514 11.607 25.67 11.6138 25.5953C11.6486 25.1994 11.6645 24.7344 11.6901 24.1876C11.7333 23.3466 11.7671 22.5093 11.7939 21.6697C11.7939 21.6697 11.8507 20.1776 11.8505 20.1767C11.8635 19.8329 11.8529 19.4519 11.7571 19.1095C11.715 18.9454 11.647 18.7891 11.5555 18.6462Z" fill="#FF1A1A"/>
<path d="M21.5169 20.9827C21.3326 20.7816 21.0716 20.5811 20.66 20.3332C20.6006 20.3002 20.531 20.2562 20.4667 20.2178C20.124 20.0126 19.7111 19.7967 19.2289 19.536C18.488 19.1311 17.7466 18.7363 16.9982 18.3448L15.676 17.6467C15.6075 17.6267 15.5379 17.5774 15.4732 17.5464C15.2192 17.4254 14.9499 17.3126 14.6704 17.2608C14.574 17.2424 14.4762 17.2323 14.3782 17.2306C14.3149 17.2298 14.2517 17.2337 14.189 17.242C13.9246 17.2828 13.6799 17.4057 13.4896 17.5932C13.2994 17.7806 13.1734 18.023 13.1295 18.286C13.1094 18.4532 13.1155 18.6225 13.1477 18.7879C13.2124 19.1382 13.3695 19.4846 13.532 19.7881L14.2381 21.1056C14.631 21.8487 15.0286 22.5875 15.4364 23.324C15.6992 23.8043 15.9181 24.2155 16.1231 24.5562C16.162 24.6203 16.206 24.6893 16.2392 24.7486C16.4887 25.1583 16.6892 25.4161 16.8925 25.6011C17.0241 25.7276 17.182 25.8239 17.3549 25.8834C17.5366 25.9434 17.7291 25.9647 17.9196 25.9459C18.0166 25.9345 18.1129 25.9179 18.208 25.8961C18.3017 25.8711 18.3941 25.8412 18.4846 25.8065C18.5825 25.7699 18.6775 25.7263 18.7689 25.6759C19.3057 25.3762 19.8005 25.0073 20.2406 24.5789C20.7684 24.0618 21.2349 23.4981 21.5977 22.8526C21.6482 22.7612 21.6919 22.6664 21.7285 22.5689C21.7627 22.4785 21.7924 22.3865 21.8172 22.2932C21.8386 22.1984 21.8551 22.1024 21.8665 22.006C21.8846 21.8163 21.8625 21.6252 21.8016 21.4446C21.7417 21.2718 21.6445 21.114 21.5169 20.9827Z" fill="#FF1A1A"/>
</g>
<defs>
<clipPath id="clip0_6659_6839">
<rect width="23" height="28" fill="white"/>
</clipPath>
</defs>
</svg>
